<svg width="100" height="94" viewBox="0 0 100 94" fill="none" xmlns="http://www.w3.org/2000/svg">
<g id="01 2" clip-path="url(#clip0_349_946)">
<path id="Vector" fill-rule="evenodd" clip-rule="evenodd" d="M22.3448 38.3238C22.3448 38.3698 21.2455 40.3366 19.9017 42.6946C18.5581 45.0527 15.7984 50.0304 13.7689 53.7565C9.27821 62.0014 4.83466 69.6421 2.0642 73.8825C0.926459 75.6239 -0.00247827 77.1692 4.96708e-06 77.3166C0.0024882 77.464 0.0615018 78.7291 0.5 79.5L1.59921 80.3878L5.50513 82.4214C12.7953 86.2164 19.3846 89.2587 26.9038 92.3007C30.4699 93.7437 31.5098 94.0761 32.1743 93.9864C32.7156 93.9131 34.1122 93.1504 36.2095 91.7828C37.9737 90.6323 42.9557 87.558 47.2806 84.9507C59.5 77 60.6789 76 66.0792 72.7049C67.178 71.8102 67.0288 71.8006 69.2159 72.9033C69.8988 73.2476 74.8808 75.6334 80.287 78.2052C85.6932 80.777 91.4854 83.5598 93.1582 84.3893C97.5225 86.553 99.1075 86.8263 99.8518 85.5441C100.153 85.0247 100.079 84.1373 98.8299 73.3415C98.0891 66.9383 97.059 57.5993 96.541 52.5884C95.3126 40.7068 94.9933 37.8335 94.8566 37.4312C94.7947 37.2487 92.5387 35.4936 89.8435 33.5308C87.1482 31.5681 81.9052 27.7208 78.1924 24.9812C74.369 22.1599 71.2358 20 70.9672 20C70.4211 20 66.6085 22.4008 63.7321 24.5561C62.6508 25.366 59.8572 27.6269 57.524 29.5801C55.1908 31.533 52.2486 33.9037 50.9858 34.8482L48.6897 36.5654L45.9159 35.328C44.3901 34.6475 42.0934 33.6969 40.8118 33.2159L38.4819 32.3411L37.167 34.7194C37.5151 34.6928 46.9437 38.617 47.2312 38.9081C47.3177 38.9957 46.819 40.8482 46.123 43.0247C45.4271 45.201 42.4547 54.7084 39.5178 64.152C34.9694 78.7776 32.116 85.6911 31.0356 89.025L30.8318 89.6541L28.5545 88.7332C27.3019 88.2265 21.5588 85.8262 15.7921 83.399C10.0254 80.9716 6.7398 79.2915 6 79C5.2602 78.7082 3.08298 77.0794 3 77C2.91681 76.9206 4.08121 75.423 5.01801 73.9405C5.9546 72.458 7.40626 70.0743 8.24373 68.6432L9.76637 66.041L11.42 66.9796C12.3295 67.4959 14.0305 68.2797 15.2003 68.7217C19.4895 70.3417 22.0778 69.5061 22.2931 66.4316C22.3694 65.3378 22.2738 64.9657 21.419 63.0345C20.8288 61.7008 20.506 60.6984 20.5811 60.4314C20.7121 59.9653 21.1777 59.7156 22.9656 59.1521C25.1432 58.466 26.4173 56.8994 26.2348 55.1333C26.1897 54.6972 26.1953 54.3405 26.2472 54.3405C26.2993 54.3405 26.8428 54.7769 27.4551 55.3099C29.5017 57.0926 31.3889 56.7067 32.4522 54.2884C33.06 52.9054 32.9325 51.7549 32 50.2077C30.9776 48.5115 29.8094 47.919 25.1962 46.7575C22.4276 46.0602 21.2255 45.6626 21.2681 45.4582C21.355 45.0421 23.6632 41.0273 23.8163 41.0259L22.3448 38.3238ZM58.9773 31.7603C62.7346 28.6421 66.5148 25.7262 68.6986 24.2622C69.6364 23.6333 69.7332 23.6333 69.7332 24.2634C69.733 25.1307 68.7468 34.7033 68.0802 40.306C67.7373 43.1868 67.4569 45.6143 67.4569 45.6998C67.4569 45.7855 67.2138 45.9808 66.9164 46.1336C66.1758 46.5146 65.943 46.245 65.2638 44.2198C64.5211 42.0045 63.7513 40.7706 62.5525 39.8745C58.9843 37.2062 54.4408 38.5789 52.6953 42.8525C52.3435 43.7139 52.249 44.3894 52.2481 46.0474C52.2473 47.9415 52.3077 48.2737 52.8598 49.3985C53.2466 50.1871 54.2496 51.4598 55.5813 52.8517C59.3812 56.8242 59.2958 57.9817 54.9654 61.1962C53.682 62.1488 52.2858 63.3849 51.8628 63.9427C49.5464 66.9979 50.3824 71.1547 53.9218 74.1795L56.1947 75.2674L52.8932 77.7569C51.0142 78.9728 36.6834 87.9471 35.0248 88.9465C34.9117 89.0146 34.7996 89.149 34.7539 89.1247C34.5887 89.0369 35.2899 85.878 39.9429 71.0435C41.7565 65.2617 44.7589 55.6639 46.6151 49.715L49.99 38.8992L52.3603 37.092C53.6638 36.0982 56.6414 33.6988 58.9773 31.7603ZM70.1411 43.5945C71.0109 36.3061 72.2165 25.0361 72.2165 24.193C72.2165 24.0498 72.2934 23.9674 72.3874 24.0104C72.8151 24.2052 86.8959 34.6167 86.9021 34.7426C86.9059 34.8208 86.3993 35.2668 85.7764 35.7338C82.9478 37.854 79.877 41.8735 78.3441 45.4626C76.862 48.9327 77.1031 51.9553 78.992 53.5817C80.125 54.5575 81.9108 54.5818 84.3094 53.6541C86.4502 52.8262 87.1229 52.7695 87.6092 53.3761C87.9418 53.7908 87.9221 53.8656 87.2254 54.8362C84.3361 58.8603 84.7194 63.867 88.0008 64.9671C88.5798 65.1612 89.3485 65.3201 89.7092 65.3201C90.969 65.3201 91.5522 65.7315 92.2854 67.1378C92.6686 67.8725 93.1572 68.8109 93.3714 69.2232C93.8877 70.2168 94.8969 71.1533 95.6293 71.3187C95.9548 71.3923 96.2211 71.5691 96.2211 71.7119C96.2211 71.8546 96.4671 74.1042 96.7678 76.7108C97.0685 79.3177 97.2589 82.5134 97.1908 82.5902C97.1227 82.6671 93.2218 80.7543 88.5218 78.3397C83.8219 75.9249 78.468 73.2358 76.624 72.364C73.1404 70.7168 68.2611 67.6562 67.8445 67.6562C67.4112 67.6562 67.9774 61.7251 70.1411 43.5945ZM79.7839 49.4978C79.8237 46.3207 83.5086 40.7185 87.5854 37.6372C88.5042 36.9427 89.3566 36.4407 89.4793 36.5217C89.6022 36.6026 90.3633 37.1681 91.171 37.7783L92.6394 38.888L92.9006 41.4163C93.0442 42.807 93.7515 49.4085 94.4725 56.0865C95.1935 62.7644 95.759 68.2556 95.7292 68.2893C95.6994 68.3229 95.24 67.4686 94.7084 66.3907C93.2859 63.5066 92.6169 62.9905 89.7063 62.531C87.8952 62.2453 87.6781 61.9634 87.7806 60.0328C87.8402 58.9101 87.9894 58.3861 88.4693 57.6122C90.0796 55.0156 90.2199 54.7072 90.2191 53.7679C90.2177 51.9824 88.9164 50.5107 87.0894 50.228C86.3734 50.1173 85.705 50.2656 83.9295 50.9291C82.6912 51.3921 81.5098 51.7708 81.3045 51.7708C81.099 51.7708 80.6696 51.5168 80.3503 51.2066C79.8557 50.7261 79.7717 50.4728 79.7839 49.4978ZM54.6608 45.7231C54.7606 43.73 55.4631 42.3844 56.7616 41.6997C58.0239 41.0341 59.8806 41.1806 61.0258 42.0363C62.0058 42.7684 62.5507 43.6685 63.0299 45.3465C63.689 47.6548 64.8034 48.9046 66.3091 49.024C67.0313 49.0812 67.0633 49.1186 66.9586 49.7851C66.5462 52.4092 65.185 65.934 65.1825 67.4326L65.1806 68.4941L62.3542 71.1339L58.5275 73.7739L56.2219 72.722C53.8279 70.7935 52.7878 69.0235 53.0357 67.2994C53.2205 66.0141 53.7497 65.3862 56.1541 63.5998C59.6556 60.9981 60.6928 59.4556 60.6789 56.8702C60.668 54.8733 59.9129 53.5042 57.5575 51.2115C55.0316 48.753 54.5542 47.8487 54.6608 45.7231ZM11.2056 63.7946C11.1682 63.7568 13.0705 60.2003 15.4331 55.8914C17.7957 51.5825 19.8071 48.1118 19.9029 48.1788C19.9988 48.2456 21.9609 48.7733 24.2633 49.3515C26.5657 49.9297 28.7191 50.5791 29.0485 50.7948C29.9607 51.3914 30.4939 52.3202 30.3348 53.0353C30.1566 53.8373 29.5787 53.8177 28.7153 52.9806C27.4286 51.7332 27.047 51.5372 25.9043 51.5372C24.9443 51.5372 24.7115 51.6327 24.1636 52.2513C23.5645 52.9276 23.537 53.0393 23.6433 54.3624C23.7737 55.9851 23.5976 56.2114 21.8275 56.6955C18.132 57.7061 17.1848 60.119 19.0379 63.8016C19.9888 65.6913 20.1062 66.1786 19.7171 66.618C19.3014 67.0871 18.2232 66.9402 15.8263 66.0875C14.516 65.6212 11.5617 64.1555 11.2056 63.7946Z" fill="#F26123" stroke="#F26123" stroke-width="0.7"/>
<g id="Group 65">
<path id="Vector_2" d="M43 18C43 27.2005 34.4762 37.5768 30.4992 41.9174C29.4076 43.1088 27.5924 43.1088 26.5008 41.9174C22.5238 37.5768 14 27.2005 14 18C14 13.7565 15.5277 9.68687 18.247 6.68629C20.9662 3.68571 24.6544 2 28.5 2C32.3456 2 36.0338 3.68571 38.753 6.68629C41.4723 9.68687 43 13.7565 43 18Z" stroke="#F26123" stroke-width="3.5" stroke-linecap="round" stroke-linejoin="round"/>
<path id="Vector_3" d="M28.5 22C31.5376 22 34 19.5376 34 16.5C34 13.4624 31.5376 11 28.5 11C25.4624 11 23 13.4624 23 16.5C23 19.5376 25.4624 22 28.5 22Z" stroke="#F26123" stroke-width="4" stroke-linecap="round" stroke-linejoin="round"/>
</g>
</g>
<defs>
<clipPath id="clip0_349_946">
<rect width="100" height="94" fill="white"/>
</clipPath>
</defs>
</svg>
