<svg width="100" height="94" viewBox="0 0 100 94" fill="none" xmlns="http://www.w3.org/2000/svg">
<g id="01 2" clip-path="url(#clip0_349_928)">
<path id="Vector" d="M-0.000114955 91.514C0.186755 91.0195 0.534249 90.6027 0.986202 90.3309C1.43816 90.0592 1.96816 89.9484 2.49056 90.0165C3.59422 90.0165 4.68296 90.0165 5.89101 90.0165C5.89101 88.8335 5.89101 87.7552 5.89101 86.692C5.60764 80.1178 8.27729 75.3557 14.4965 72.6152C12.8488 71.2253 11.5461 69.469 10.6918 67.4857C9.83752 65.5024 9.45509 63.3466 9.57483 61.1891C9.80718 57.7405 11.3111 54.5026 13.793 52.1075C16.2749 49.7123 19.5566 48.3318 22.9976 48.2354C24.8301 48.1872 26.6538 48.5038 28.3638 49.167C30.0737 49.8301 31.6359 50.8266 32.9604 52.099C33.4391 47.9221 35.4308 44.0678 38.5563 41.2699C41.6819 38.4719 45.723 36.9258 49.9104 36.9258C54.0977 36.9258 58.1389 38.4719 61.2644 41.2699C64.39 44.0678 66.3817 47.9221 66.8604 52.099C68.5935 50.4222 70.732 49.2281 73.065 48.6346C75.398 48.0411 77.8448 48.0686 80.1639 48.7146C83.1555 49.5077 85.7868 51.3043 87.6211 53.8062C89.7139 56.6283 90.6719 60.1382 90.3043 63.6374C89.9368 67.1365 88.2706 70.3685 85.6375 72.6901C86.234 72.9746 86.8306 73.2292 87.3824 73.5437C89.4615 74.6634 91.1941 76.3353 92.3909 78.3769C93.5876 80.4184 94.2026 82.7509 94.1684 85.1196C94.1684 86.7219 94.1684 88.3093 94.1684 90.0614C95.3317 90.0614 96.4354 90.0614 97.5241 90.0614C98.0323 90.058 98.5371 90.1441 99.0155 90.316C99.3637 90.4704 99.6508 90.7366 99.8317 91.0728C100.013 91.409 100.077 91.796 100.015 92.173C100.004 92.568 99.861 92.9479 99.6096 93.2519C99.3581 93.556 99.0125 93.7666 98.6278 93.8502C98.2107 93.9354 97.7857 93.9756 97.3601 93.97H58.7918C58.2824 93.9704 57.7926 93.7724 57.4255 93.4177C57.0583 93.0631 56.8424 92.5793 56.8231 92.0681C56.825 91.8125 56.8778 91.5599 56.9783 91.3251C57.0788 91.0903 57.2251 90.8781 57.4085 90.7009C57.592 90.5237 57.8088 90.3851 58.0464 90.2933C58.284 90.2015 58.5374 90.1583 58.7918 90.1663C61.3272 90.1663 63.8776 90.1663 66.413 90.1663H67.7404C67.7404 87.7403 67.7404 85.4041 67.7404 83.068C67.7103 82.1252 67.5905 81.1874 67.3824 80.2676C66.7899 77.7919 65.4119 75.5768 63.4561 73.9561C61.5004 72.3354 59.073 71.397 56.5398 71.2824C52.155 71.1327 47.7404 71.1177 43.3556 71.2824C40.3662 71.453 37.5529 72.7573 35.4847 74.9313C33.4164 77.1053 32.2476 79.9868 32.2146 82.9931C32.2146 85.3442 32.2146 87.6953 32.2146 90.1663C32.5875 90.1663 32.9305 90.1663 33.2736 90.1663H40.4026C40.7894 90.1282 41.179 90.1282 41.5659 90.1663C41.9906 90.2603 42.3706 90.4971 42.6431 90.8375C42.9155 91.1779 43.064 91.6015 43.064 92.0382C43.064 92.4749 42.9155 92.8985 42.6431 93.2389C42.3706 93.5793 41.9906 93.8161 41.5659 93.9101C41.1181 93.9907 40.6634 94.0258 40.2087 94.0149C27.7105 94.0149 15.2124 94.0149 2.71428 94.0149C2.17299 94.0755 1.62553 93.9861 1.13126 93.7564C0.636984 93.5267 0.214769 93.1656 -0.0895996 92.7121L-0.000114955 91.514ZM50.0073 40.8376C47.4217 40.8376 44.894 41.6071 42.7437 43.0489C40.5934 44.4907 38.9169 46.5401 37.9261 48.9381C36.9352 51.3362 36.6745 53.9753 37.1767 56.5221C37.679 59.0689 38.9218 61.4091 40.748 63.247C42.5743 65.085 44.9021 66.3381 47.4374 66.8483C49.9726 67.3584 52.6016 67.1026 54.9921 66.1132C57.3827 65.1237 59.4275 63.445 60.8683 61.2892C62.3091 59.1334 63.0812 56.5971 63.0871 54.0009C63.0891 52.2742 62.7523 50.5641 62.0961 48.9681C61.4398 47.3721 60.4769 45.9216 59.2623 44.6992C58.0478 43.4769 56.6053 42.5068 55.0173 41.8442C53.4294 41.1816 51.727 40.8396 50.0073 40.8376ZM23.3556 71.9563C25.3119 71.9622 27.226 71.3853 28.8557 70.2986C30.4854 69.2119 31.7574 67.6643 32.5108 65.8514C33.2643 64.0386 33.4652 62.0421 33.0882 60.1146C32.7113 58.1871 31.7734 56.4152 30.3932 55.023C29.013 53.6309 27.2526 52.6811 25.3346 52.2939C23.4167 51.9067 21.4275 52.0994 19.6186 52.8477C17.8098 53.596 16.2627 54.8662 15.1731 56.4976C14.0834 58.1291 13.5002 60.0484 13.4973 62.0127C13.4934 63.3158 13.7453 64.607 14.2388 65.8122C14.7323 67.0175 15.4576 68.1132 16.3732 69.0368C17.2889 69.9603 18.3769 70.6936 19.5749 71.1945C20.7731 71.6955 22.0578 71.9543 23.3556 71.9563ZM76.5994 71.9563C78.5564 71.9533 80.4684 71.3673 82.0935 70.2726C83.7186 69.1778 84.9837 67.6235 85.7284 65.8064C86.4732 63.9893 86.6643 61.9911 86.2774 60.0649C85.8906 58.1388 84.9432 56.3711 83.5552 54.9859C82.1673 53.6007 80.4012 52.6601 78.4805 52.2833C76.5599 51.9065 74.5711 52.1104 72.766 52.8692C70.9608 53.628 69.4205 54.9076 68.34 56.5459C67.2595 58.1842 66.6875 60.1076 66.6964 62.0726C66.716 64.6982 67.7676 67.2097 69.6222 69.0607C71.4769 70.9118 73.9845 71.9524 76.5994 71.9563ZM71.7076 89.9267H90.1863C90.1863 88.2644 90.1863 86.677 90.1863 85.0896C90.2111 83.8598 89.9867 82.6378 89.5266 81.4978C89.0665 80.3577 88.3805 79.3235 87.51 78.4579C86.6396 77.5924 85.603 76.9135 84.4633 76.4626C83.3235 76.0117 82.1043 75.7981 80.8798 75.8349C77.9566 75.8349 75.0334 75.8349 72.1102 75.8349C71.4689 75.8349 70.8425 75.9547 70.067 76.0296C72.3638 80.612 71.4689 85.3292 71.7076 89.9866V89.9267ZM29.9477 76.0595C29.5241 75.974 29.0958 75.914 28.6651 75.8798C25.026 75.8798 21.372 75.76 17.7478 75.9697C15.9812 76.1045 14.304 76.8039 12.9621 77.9654C11.6201 79.1269 10.6839 80.6894 10.2907 82.424C9.92196 84.9031 9.72759 87.4052 9.70906 89.9117H28.2773C28.5159 85.2993 27.6211 80.5821 29.9179 76.1194L29.9477 76.0595ZM37.0767 65.0377L34.929 69.9646L39.7016 67.5985L37.0767 65.0377ZM65.1155 69.9047L62.9678 65.0377C62.1028 65.8613 61.193 66.7449 60.3429 67.5386L65.1155 69.9047Z" fill="#F26123"/>
<path id="Vector_2" d="M39.6123 24.5745C39.7615 22.7924 39.9404 21.1452 40.015 19.4829C40.0129 18.9416 39.8348 18.4158 39.5079 17.9854C38.4639 16.6825 37.3304 15.4545 36.2566 14.1966C35.7759 13.7529 35.4332 13.1791 35.2698 12.5443C35.1064 11.9095 35.1294 11.2408 35.3358 10.6188C35.5423 9.99682 35.9236 9.44804 36.4336 9.03863C36.9436 8.62922 37.5607 8.37663 38.2104 8.31132C39.8659 7.93694 41.5213 7.57753 43.147 7.14325C43.5917 7.00745 43.9795 6.72855 44.2507 6.34956C45.2052 4.85203 46.0702 3.35449 46.9949 1.85696C47.2808 1.3113 47.7098 0.854446 48.2355 0.53574C48.7612 0.217033 49.3636 0.048584 49.9777 0.048584C50.5918 0.048584 51.1942 0.217033 51.7199 0.53574C52.2456 0.854446 52.6746 1.3113 52.9606 1.85696C53.8405 3.35449 54.6608 4.85203 55.6004 6.1998C55.9156 6.66079 56.3789 6.99913 56.9129 7.15822C58.5683 7.63743 60.2536 7.95191 61.924 8.37122C62.5327 8.47153 63.1022 8.7376 63.5706 9.14044C64.0391 9.54329 64.3885 10.0675 64.5807 10.6559C64.773 11.2443 64.8008 11.8745 64.6611 12.4776C64.5213 13.0808 64.2195 13.634 63.7883 14.0768C62.6697 15.4246 61.4617 16.7274 60.358 18.0902C60.0637 18.4597 59.9057 18.92 59.9106 19.393C60.0001 21.1751 60.2089 22.9721 60.3133 24.7542C60.4051 25.3663 60.3264 25.992 60.0859 26.562C59.8454 27.132 59.4525 27.6241 58.9507 27.9837C58.4489 28.3434 57.8578 28.5566 57.2428 28.5998C56.6278 28.643 56.0129 28.5145 55.4662 28.2285C53.9002 27.5845 52.3342 26.9256 50.798 26.2218C50.5274 26.0849 50.2286 26.0135 49.9255 26.0135C49.6225 26.0135 49.3237 26.0849 49.053 26.2218C47.6362 26.8807 46.1597 27.4048 44.7577 28.0937C44.1952 28.4246 43.5507 28.5885 42.8991 28.5663C42.2474 28.544 41.6155 28.3365 41.0766 27.968C40.5378 27.5994 40.1141 27.0849 39.8549 26.4842C39.5957 25.8835 39.5116 25.2213 39.6123 24.5745ZM50.0523 4.46267C49.0978 6.05005 48.1731 7.45773 47.3826 8.95526C47.1247 9.4788 46.7445 9.93197 46.2744 10.2762C45.8044 10.6203 45.2585 10.8453 44.6832 10.932C43.0277 11.2315 41.402 11.6658 39.6272 12.0701C40.9695 13.5677 42.1776 15.0652 43.4304 16.4729C43.7045 16.7717 43.9073 17.1293 44.0236 17.5184C44.1398 17.9076 44.1665 18.3181 44.1015 18.7192C43.9076 20.5461 43.7734 22.3881 43.6093 24.3798C45.3991 23.6311 47.0545 22.9871 48.6653 22.2384C49.1008 22.0207 49.5807 21.9075 50.0672 21.9075C50.5537 21.9075 51.0336 22.0207 51.4692 22.2384C53.0799 22.9721 54.7354 23.6311 56.4952 24.3648C56.3312 22.448 56.2417 20.6659 56.018 18.8839C55.9421 18.4212 55.9754 17.9471 56.1153 17.4997C56.2551 17.0524 56.4977 16.6442 56.8234 16.3081C58.0463 14.9604 59.2096 13.5677 60.4923 12.0701C58.6578 11.6508 57.0023 11.2165 55.317 10.8871C54.7747 10.8058 54.2598 10.5947 53.8159 10.2715C53.372 9.94827 53.0121 9.52249 52.7667 9.03013C51.9017 7.50265 50.9621 6.06502 49.9926 4.46267H50.0523Z" fill="#F26123"/>
<path id="Vector_3" d="M13.6615 34.5929C13.6615 33.7243 13.751 32.5712 13.93 31.4481C14.0075 31.0865 13.989 30.7108 13.8765 30.3587C13.7639 30.0065 13.5612 29.6902 13.2886 29.4414C12.4385 28.5579 11.6481 27.5994 10.8576 26.641C10.4908 26.2336 10.2384 25.7357 10.1262 25.1982C10.014 24.6607 10.046 24.1029 10.219 23.5819C10.3919 23.061 10.6996 22.5954 11.1106 22.2331C11.5215 21.8707 12.021 21.6244 12.5578 21.5195C13.8703 21.19 15.2126 20.9204 16.525 20.561C16.9377 20.4258 17.2976 20.1639 17.5541 19.8123C18.2849 18.6891 18.9262 17.521 19.6272 16.3829C19.8892 15.8775 20.2844 15.4539 20.7695 15.1582C21.2547 14.8626 21.8114 14.7063 22.3789 14.7063C22.9464 14.7063 23.503 14.8626 23.9882 15.1582C24.4734 15.4539 24.8685 15.8775 25.1306 16.3829C25.8166 17.4911 26.4281 18.6592 27.1589 19.7224C27.4407 20.1328 27.8497 20.4381 28.3222 20.591C29.5899 20.9654 30.9024 21.205 32.1999 21.5344C32.7498 21.6332 33.2626 21.8799 33.6839 22.2482C34.1051 22.6165 34.4189 23.0927 34.5919 23.626C34.7649 24.1593 34.7905 24.7298 34.666 25.2765C34.5416 25.8233 34.2717 26.3259 33.8852 26.7309C33.0351 27.7642 32.1104 28.7226 31.2901 29.7259C31.0084 30.1013 30.8565 30.5588 30.8576 31.0288C30.8576 32.2717 31.0217 33.4997 31.1559 34.7277C31.2817 35.3085 31.2409 35.9133 31.0383 36.4718C30.8358 37.0304 30.4797 37.5198 30.0114 37.8835C29.5431 38.2471 28.9817 38.47 28.3924 38.5264C27.8031 38.5828 27.2099 38.4703 26.6816 38.2019C25.5183 37.7227 24.3699 37.1687 23.1768 36.7044C22.6929 36.5412 22.1692 36.5412 21.6854 36.7044C20.522 37.1088 19.4035 37.6479 18.2551 38.1121C15.5407 39.2502 13.4825 37.7527 13.6615 34.5929ZM17.6138 34.1886C18.8218 33.6794 19.9106 33.29 20.9396 32.7809C21.3964 32.5279 21.9095 32.3952 22.4311 32.3952C22.9527 32.3952 23.4658 32.5279 23.9225 32.7809C24.9367 33.2601 25.9956 33.6644 27.1887 34.1586C27.0843 32.7809 27.0247 31.5379 26.8606 30.3249C26.7937 29.9076 26.825 29.4804 26.9519 29.0773C27.0788 28.6743 27.2978 28.3067 27.5914 28.0038C28.4415 27.0603 29.2618 26.0869 30.1716 25.0087C28.8591 24.7092 27.7107 24.4097 26.5325 24.1851C26.067 24.1109 25.6256 23.927 25.2445 23.6485C24.8634 23.37 24.5535 23.0047 24.3401 22.5827C23.7734 21.5195 23.1022 20.5011 22.4162 19.363C21.7152 20.5311 21.059 21.5195 20.5071 22.5528C20.3005 23.0085 19.9833 23.4049 19.5847 23.7057C19.1861 24.0066 18.7187 24.2023 18.2253 24.2749C17.0769 24.4995 15.9285 24.814 14.6608 25.1135C15.5705 26.1468 16.3162 27.0903 17.1365 27.9588C17.454 28.2854 17.6929 28.6805 17.835 29.1139C17.9772 29.5473 18.0188 30.0077 17.9568 30.4597C17.8077 31.6128 17.7331 32.8108 17.6138 34.1886Z" fill="#F26123"/>
<path id="Vector_4" d="M71.8569 38.6663C71.4195 38.6459 70.9908 38.5366 70.5968 38.3451C70.2027 38.1536 69.8514 37.8838 69.5642 37.552C69.277 37.2202 69.0598 36.8333 68.9258 36.4148C68.7918 35.9963 68.7437 35.5548 68.7845 35.1171C68.874 33.8442 68.9933 32.5713 69.1425 31.3134C69.198 30.9948 69.1754 30.6674 69.0767 30.3595C68.9779 30.0516 68.806 29.7725 68.5757 29.5463C67.7256 28.6478 66.9202 27.6894 66.1298 26.7459C65.726 26.3341 65.4443 25.8176 65.3161 25.2541C65.188 24.6907 65.2185 24.1026 65.4042 23.5556C65.5899 23.0086 65.9236 22.5242 66.3678 22.1567C66.812 21.7892 67.3493 21.553 67.9195 21.4746C69.1276 21.1901 70.3207 20.8906 71.5288 20.651C71.8153 20.613 72.0879 20.5042 72.3222 20.3343C72.5565 20.1644 72.7451 19.9388 72.871 19.6776C73.4825 18.5694 74.1537 17.4762 74.8248 16.398C75.0826 15.8809 75.4786 15.4461 75.9685 15.1422C76.4585 14.8383 77.023 14.6774 77.5988 14.6774C78.1747 14.6774 78.7392 14.8383 79.2292 15.1422C79.7191 15.4461 80.1151 15.8809 80.3729 16.398C81.1932 17.7009 81.7152 19.3931 82.8487 20.2167C83.9821 21.0403 85.742 21.0553 87.2185 21.4297C87.8064 21.5032 88.3613 21.7433 88.8182 22.1221C89.275 22.5008 89.6149 23.0025 89.7981 23.5682C89.9812 24.1339 89.9999 24.7404 89.8521 25.3164C89.7043 25.8925 89.3961 26.4143 88.9635 26.8208C88.5194 27.4069 88.0199 27.9485 87.4721 28.4381C86.8384 28.9423 86.3692 29.6251 86.1247 30.3989C85.8803 31.1727 85.8716 32.0022 86.1 32.781C86.2447 33.6217 86.3146 34.4736 86.3088 35.3268C86.3556 35.8487 86.2652 36.3738 86.0467 36.8496C85.8282 37.3255 85.4892 37.7354 85.0635 38.0386C84.6378 38.3417 84.1404 38.5274 83.6209 38.5771C83.1014 38.6268 82.578 38.5388 82.1029 38.3218C80.8054 37.8277 79.5377 37.1987 78.2252 36.7345C77.7441 36.5556 77.215 36.5556 76.7338 36.7345C75.5407 37.1538 74.3923 37.7079 73.2141 38.232C72.8561 38.4117 72.349 38.5165 71.8569 38.6663ZM82.3863 34.1737C82.2521 32.781 82.1775 31.6129 82.0433 30.4598C81.9687 29.9924 82.0055 29.514 82.1507 29.0636C82.2959 28.6133 82.5453 28.2039 82.8785 27.8691C83.7137 27.0005 84.4594 26.0571 85.3393 25.0387C84.1164 24.7542 83.0276 24.4397 81.924 24.26C81.3919 24.1946 80.8849 23.9957 80.4496 23.6816C80.0143 23.3675 79.6648 22.9484 79.4333 22.463C78.8964 21.4447 78.2551 20.4863 77.5839 19.4679C76.9128 20.5911 76.2864 21.5495 75.7495 22.5528C75.5221 23.0167 75.1837 23.4168 74.7647 23.7173C74.3457 24.0178 73.8591 24.2094 73.3483 24.275C72.2148 24.4847 71.0962 24.7991 69.8584 25.0986C70.7681 26.1469 71.5437 27.0904 72.3789 28.0039C72.6851 28.3177 72.9136 28.6994 73.0457 29.1182C73.1778 29.5371 73.21 29.9813 73.1395 30.4149C72.9754 31.6279 72.9307 32.8409 72.8263 34.2186C74.1686 33.6495 75.3468 33.1853 76.4803 32.7211C76.8316 32.5512 77.2164 32.463 77.6063 32.463C77.9962 32.463 78.3811 32.5512 78.7323 32.7211C79.8807 33.1554 81.044 33.6196 82.3863 34.1887V34.1737Z" fill="#F26123"/>
<path id="Vector_5" d="M50.0075 90.1663C50.2601 90.1683 50.5099 90.2202 50.7426 90.3191C50.9753 90.418 51.1863 90.5619 51.3635 90.7427C51.5408 90.9235 51.6809 91.1375 51.7758 91.3727C51.8706 91.6078 51.9184 91.8594 51.9165 92.1131C51.9012 92.6257 51.6895 93.1127 51.3256 93.4725C50.9616 93.8324 50.4734 94.0374 49.9627 94.0449C49.7023 94.043 49.4449 93.9889 49.2056 93.8857C48.9663 93.7825 48.75 93.6323 48.5694 93.4439C48.3887 93.2556 48.2474 93.0329 48.1537 92.7889C48.0601 92.5449 48.0159 92.2846 48.0239 92.0232C48.0315 91.7702 48.0891 91.5211 48.1932 91.2905C48.2972 91.0599 48.4458 90.8523 48.6302 90.6796C48.8146 90.507 49.0313 90.3727 49.2677 90.2846C49.5041 90.1965 49.7555 90.1563 50.0075 90.1663Z" fill="#F26123"/>
</g>
<defs>
<clipPath id="clip0_349_928">
<rect width="100" height="94" fill="white"/>
</clipPath>
</defs>
</svg>
