<svg width="48" height="48" viewBox="0 0 48 48" fill="none" xmlns="http://www.w3.org/2000/svg">
<g clip-path="url(#clip0_1026_280)">
<path d="M24 0C17.6363 0 11.5275 2.53013 7.03125 7.02938C2.53036 11.5304 0.00124676 17.6347 0 24C0 30.3626 2.53125 36.4714 7.03125 40.9706C11.5275 45.4699 17.6363 48 24 48C30.3637 48 36.4725 45.4699 40.9688 40.9706C45.4688 36.4714 48 30.3626 48 24C48 17.6374 45.4688 11.5286 40.9688 7.02938C36.4725 2.53013 30.3637 0 24 0Z" fill="#58595B"/>
<path d="M24.2571 48C24.5829 37.3713 24.8571 32.52 28.6287 28.6287C32.52 24.8571 37.3713 24.6 48 24.2571V23.7429C37.3713 23.4 32.52 23.1429 28.6287 19.3713C24.8571 15.48 24.5829 10.6287 24.2571 0H23.7429C23.4171 10.6287 23.1429 15.48 19.3713 19.3713C15.48 23.1429 10.6287 23.4 0 23.7429V24.2571C10.6287 24.5829 15.48 24.8571 19.3713 28.6287C23.1429 32.52 23.4 37.3713 23.7429 48H24.2571Z" fill="white"/>
</g>
<defs>
<clipPath id="clip0_1026_280">
<rect width="48" height="48" fill="white"/>
</clipPath>
</defs>
</svg>
