<svg width="48" height="48" viewBox="0 0 48 48" fill="none" xmlns="http://www.w3.org/2000/svg">
<g id="ok" clip-path="url(#clip0_45_2328)">
<path id="Vector" d="M24 0C10.745 0 0 10.745 0 24C0 37.255 10.745 48 24 48C37.255 48 48 37.255 48 24C48 10.745 37.255 0 24 0Z" fill="#58595B"/>
<path id="Vector_2" d="M30.9824 24.8896C30.647 24.2055 29.7009 23.6295 28.4433 24.6016C26.7307 25.9697 24 25.9697 24 25.9697C24 25.9697 21.2694 25.9697 19.5568 24.6016C18.2992 23.6295 17.3531 24.2055 17.0177 24.8896C16.4189 26.0898 17.0896 26.6778 18.6106 27.65C19.9161 28.4901 21.7006 28.8021 22.8503 28.9221L21.8922 29.8822C20.5269 31.2384 19.2094 32.5466 18.3112 33.4587C17.7723 34.0108 17.7723 34.8869 18.3112 35.4029L18.4789 35.595C19.0178 36.135 19.9041 36.135 20.443 35.595L24 32.0185C25.3773 33.3747 26.6828 34.6828 27.593 35.595C28.1319 36.135 29.0062 36.135 29.5571 35.595L29.7128 35.4029C30.2638 34.8869 30.2638 34.0108 29.7128 33.4587L26.1438 29.8822L25.1977 28.9101C26.3355 28.8021 28.096 28.4781 29.3895 27.65C30.9105 26.6778 31.5812 26.0898 30.9824 24.8896ZM24 15.0844C25.6528 15.0844 26.9942 16.4286 26.9942 18.0728C26.9942 19.729 25.6528 21.0611 24 21.0611C22.3473 21.0611 21.0059 19.729 21.0059 18.0728C21.0059 16.4286 22.3473 15.0844 24 15.0844ZM24 24.1455C27.3535 24.1455 30.0602 21.4332 30.0602 18.0728C30.0602 16.4622 29.4217 14.9175 28.2852 13.7787C27.1487 12.6398 25.6073 12 24 12C22.3928 12 20.8514 12.6398 19.7149 13.7787C18.5784 14.9175 17.9399 16.4622 17.9399 18.0728C17.9399 21.4332 20.6466 24.1455 24 24.1455Z" fill="white"/>
</g>
<defs>
<clipPath id="clip0_45_2328">
<rect width="48" height="48" fill="white"/>
</clipPath>
</defs>
</svg>
