<svg width="24" height="20" viewBox="0 0 24 20" fill="none" xmlns="http://www.w3.org/2000/svg">
<g id="information">
<path id="Vector" d="M7.32 3.5C6.992 3.5 6.677 3.63 6.443 3.86L3.768 6.5H8.25C9.598 6.5 10.72 7.47 10.955 8.75H13.045C13.1619 8.11796 13.4964 7.54682 13.9906 7.13579C14.4847 6.72476 15.1072 6.4998 15.75 6.5H20.232L17.557 3.86C17.323 3.62926 17.0076 3.49993 16.679 3.5H15.249C15.0501 3.5 14.8593 3.42098 14.7187 3.28033C14.578 3.13968 14.499 2.94891 14.499 2.75C14.499 2.55109 14.578 2.36032 14.7187 2.21967C14.8593 2.07902 15.0501 2 15.249 2H16.679C17.4022 2 18.0963 2.2849 18.611 2.793L23.031 7.154C23.135 7.243 23.232 7.339 23.322 7.442L23.347 7.466L23.345 7.468C23.753 7.948 24 8.57 24 9.25V13.25C24 14.2446 23.6049 15.1984 22.9017 15.9017C22.1984 16.6049 21.2446 17 20.25 17H16.75C15.7554 17 14.8016 16.6049 14.0983 15.9017C13.3951 15.1984 13 14.2446 13 13.25V10.25H11V13.25C11 14.2446 10.6049 15.1984 9.90165 15.9017C9.19839 16.6049 8.24456 17 7.25 17H3.75C2.75544 17 1.80161 16.6049 1.09835 15.9017C0.395088 15.1984 0 14.2446 0 13.25V9.25C0 8.57 0.247 7.948 0.655 7.468L0.653 7.466L0.68 7.44C0.769 7.338 0.865 7.243 0.968 7.156L5.389 2.793C5.90367 2.2849 6.59778 2 7.321 2H8.75C8.94891 2 9.13968 2.07902 9.28033 2.21967C9.42098 2.36032 9.5 2.55109 9.5 2.75C9.5 2.94891 9.42098 3.13968 9.28033 3.28033C9.13968 3.42098 8.94891 3.5 8.75 3.5H7.32Z" fill="#F26123"/>
</g>
</svg>
