<?xml version="1.0" encoding="utf-8"?><svg viewBox="0 0 150 48" xmlns="http://www.w3.org/2000/svg" xmlns:xlink="http://www.w3.org/1999/xlink"><style>:root>svg{display:none}:root>svg:target{display:block}</style><svg fill="none" viewBox="0 0 24 20" id="icon-glass" xmlns="http://www.w3.org/2000/svg"><path d="M7.32 3.5c-.328 0-.643.13-.877.36L3.768 6.5H8.25c1.348 0 2.47.97 2.705 2.25h2.09A2.75 2.75 0 0115.75 6.5h4.482l-2.675-2.64a1.25 1.25 0 00-.878-.36h-1.43a.75.75 0 110-1.5h1.43a2.75 2.75 0 011.932.793l4.42 4.361c.104.089.201.185.291.288l.025.024-.002.002c.408.48.655 1.102.655 1.782v4A3.75 3.75 0 0120.25 17h-3.5A3.75 3.75 0 0113 13.25v-3h-2v3A3.75 3.75 0 017.25 17h-3.5A3.75 3.75 0 010 13.25v-4c0-.68.247-1.302.655-1.782l-.002-.002.027-.026c.089-.102.185-.197.288-.284l4.421-4.363A2.75 2.75 0 017.321 2H8.75a.75.75 0 010 1.5H7.32z" fill="#F26123"/></svg><svg fill="none" viewBox="0 0 18 16" id="icon-info" xmlns="http://www.w3.org/2000/svg"><g clip-path="url(#bclip0_495_2015)"><path d="M17.395 10.877l-5.41-9.01C11.27.676 10.19 0 9 0S6.73.677 6.015 1.857l-5.41 9.02C.2 11.545 0 12.24 0 12.9c0 .521.128 1.034.385 1.482C.97 15.405 2.105 16 3.507 16h10.986c1.4 0 2.536-.595 3.122-1.62.257-.448.385-.932.385-1.445.009-.677-.193-1.381-.605-2.058zM9 4.52c.778 0 1.419.64 1.419 1.418a1.42 1.42 0 01-1.42 1.418c-.777 0-1.418-.64-1.418-1.418C7.58 5.15 8.212 4.52 9 4.52zm1.547 7.74c-.027.036-.732.841-1.895.841h-.137c-.467-.027-.852-.229-1.08-.576-.285-.43-.33-1.016-.11-1.665L7.7 9.743c.21-.622.009-.723-.1-.778l-.13-.018c-.228 0-.548.137-.65.192a.23.23 0 01-.283-.064.234.234 0 01.01-.293c.027-.036.796-.905 2.032-.832.467.027.851.228 1.08.576.293.43.33 1.015.11 1.674l-.375 1.116c-.211.622-.01.723.1.778l.128.018c.23 0 .55-.137.65-.183.101-.055.211-.027.284.064.064.064.064.183-.009.265z" fill="#fff"/></g><defs><clipPath id="bclip0_495_2015"><path fill="#fff" d="M0 0h18v16H0z"/></clipPath></defs></svg><svg fill="none" viewBox="0 0 17 20" id="icon-location" xmlns="http://www.w3.org/2000/svg"><g clip-path="url(#cclip0_495_2010)" fill="#F26123"><path d="M12.577 14l-.77 1.45 3.774-.618c-.762-.382-1.793-.655-3.004-.832zm-9.722.316C1.107 14.777 0 15.532 0 16.654c0 .242.054.48.155.7l6.057-.99-3.357-2.048zM16.858 16l-8.43 1.374 2.223 2.53C14.302 19.575 17 18.41 17 16.653c0-.234-.05-.451-.142-.654zm-9.854 1.611l-5.696.931C2.813 19.475 5.47 20 8.5 20c.184 0 .363-.005.544-.009l-2.04-2.38zM8.5 0C5.48 0 3 2.57 3 5.705c0 1.206.368 2.328.99 3.251l3.565 6.41.016.02c.14.192.278.343.439.453a.848.848 0 00.558.157c.392-.04.633-.329.861-.65l.012-.017 3.936-6.967.002-.005c.093-.173.16-.35.219-.522.265-.676.402-1.4.402-2.13C14 2.57 11.522 0 8.5 0zm0 3.286c1.311 0 2.334 1.062 2.334 2.42 0 1.357-1.023 2.418-2.334 2.418-1.31 0-2.334-1.061-2.334-2.419 0-1.357 1.024-2.42 2.334-2.42z"/></g><defs><clipPath id="cclip0_495_2010"><path fill="#fff" d="M0 0h17v20H0z"/></clipPath></defs></svg><svg fill="none" viewBox="0 0 48 48" id="icon-ok" xmlns="http://www.w3.org/2000/svg"><g clip-path="url(#dclip0_45_2328)"><path d="M24 0C10.745 0 0 10.745 0 24s10.745 24 24 24 24-10.745 24-24S37.255 0 24 0z" fill="#58595B"/><path d="M30.982 24.89c-.335-.684-1.281-1.26-2.539-.288C26.731 25.97 24 25.97 24 25.97s-2.73 0-4.443-1.368c-1.258-.973-2.204-.396-2.54.288-.598 1.2.073 1.788 1.594 2.76 1.305.84 3.09 1.152 4.24 1.272l-.959.96c-1.365 1.356-2.683 2.665-3.58 3.577-.54.552-.54 1.428 0 1.944l.167.192c.539.54 1.425.54 1.964 0L24 32.019a571.608 571.608 0 013.593 3.576c.539.54 1.413.54 1.964 0l.156-.192c.55-.516.55-1.392 0-1.944l-3.57-3.577-.945-.972c1.137-.108 2.898-.432 4.192-1.26 1.52-.972 2.191-1.56 1.592-2.76zM24 15.084a2.996 2.996 0 012.994 2.989A2.988 2.988 0 0124 21.06a2.988 2.988 0 01-2.994-2.988A2.996 2.996 0 0124 15.084zm0 9.061a6.058 6.058 0 006.06-6.072 6.08 6.08 0 00-1.775-4.294 6.054 6.054 0 00-8.57 0 6.08 6.08 0 00-1.775 4.294A6.058 6.058 0 0024 24.145z" fill="#fff"/></g><defs><clipPath id="dclip0_45_2328"><path fill="#fff" d="M0 0h48v48H0z"/></clipPath></defs></svg><svg fill="none" viewBox="0 0 20 20" id="icon-phone" xmlns="http://www.w3.org/2000/svg"><g clip-path="url(#eclip0_45_2801)"><path d="M19.248 13.972L14.33 11.77a1.25 1.25 0 00-1.225.133l-2.583 2.202a.406.406 0 01-.385.022c-1.692-.817-3.443-2.554-4.26-4.226a.406.406 0 01.019-.384l2.208-2.626.03-.04a1.25 1.25 0 00.104-1.183L6.03.759a1.25 1.25 0 00-1.3-.75A5.443 5.443 0 000 5.416C0 13.458 6.542 20 14.584 20a5.443 5.443 0 005.407-4.731 1.25 1.25 0 00-.743-1.297zM12.5 7.083V2.916a.417.417 0 01.834 0v3.16l4.288-4.288a.417.417 0 01.59.59l-4.289 4.288h3.16a.417.417 0 110 .834h-4.166a.417.417 0 01-.417-.417z" fill="#F26123"/></g><defs><clipPath id="eclip0_45_2801"><path fill="#fff" d="M0 0h20v20H0z"/></clipPath></defs></svg><svg fill="none" viewBox="0 0 20 20" id="icon-search" xmlns="http://www.w3.org/2000/svg"><g clip-path="url(#fclip0_495_1999)"><path d="M14.665 12.898h-.926l-.329-.316a7.617 7.617 0 001.736-6.261C14.595 3.061 11.873.459 8.59.061A7.635 7.635 0 00.41 5.156a7.622 7.622 0 00-.35 3.427c.398 3.282 3.002 6.002 6.264 6.553a7.629 7.629 0 006.264-1.735l.317.329v.926l4.985 4.983c.481.48 1.267.48 1.748 0 .481-.481.481-1.267 0-1.747l-4.974-4.995zm-7.038 0a5.27 5.27 0 01-5.28-5.276 5.27 5.27 0 015.28-5.276 5.27 5.27 0 015.279 5.276 5.27 5.27 0 01-5.28 5.276z" fill="#F26123"/></g><defs><clipPath id="fclip0_495_1999"><path fill="#fff" d="M0 0h20v20H0z"/></clipPath></defs></svg><svg fill="none" viewBox="0 0 11 19" id="icon-slider-arrow-left" xmlns="http://www.w3.org/2000/svg"><g clip-path="url(#gclip0_45_2888)"><path d="M8.82 18.624L.28 10.202a.884.884 0 01-.216-.326A1.075 1.075 0 010 9.5c0-.134.021-.259.063-.376a.868.868 0 01.216-.326L8.82.351A1.21 1.21 0 019.707 0c.355 0 .66.125.913.376.253.25.38.543.38.877 0 .335-.127.627-.38.878L3.168 9.5l7.452 7.37c.236.233.355.522.355.865 0 .343-.127.639-.38.889-.254.25-.55.376-.888.376-.338 0-.633-.125-.887-.376z" fill="#6E747A"/></g><defs><clipPath id="gclip0_45_2888"><path fill="#fff" d="M0 0h11v19H0z"/></clipPath></defs></svg><svg fill="none" viewBox="0 0 11 19" id="icon-slider-arrow-right" xmlns="http://www.w3.org/2000/svg"><g clip-path="url(#hclip0_45_2890)"><path d="M2.18 18.624l8.541-8.422a.884.884 0 00.216-.326c.043-.117.064-.242.063-.376 0-.134-.021-.259-.063-.376a.869.869 0 00-.216-.326L2.18.351A1.21 1.21 0 001.293 0C.938 0 .633.125.38.376.127.626 0 .919 0 1.253c0 .335.127.627.38.878L7.832 9.5.38 16.87a1.17 1.17 0 00-.355.865c0 .343.127.639.38.889.254.25.55.376.888.376.338 0 .633-.125.887-.376z" fill="#6E747A"/></g><defs><clipPath id="hclip0_45_2890"><path fill="#fff" transform="matrix(-1 0 0 1 11 0)" d="M0 0h11v19H0z"/></clipPath></defs></svg><svg fill="none" viewBox="0 0 48 48" id="icon-tlg" xmlns="http://www.w3.org/2000/svg"><g clip-path="url(#iclip0_45_2331)"><path d="M24 0A24.007 24.007 0 000 24a24.007 24.007 0 0024 24 24.007 24.007 0 0024-24A24.007 24.007 0 0024 0z" fill="#58595B"/><path d="M11.332 23.699c6.766-3.048 11.276-5.058 13.532-6.029 6.447-2.772 7.784-3.254 8.658-3.27.193-.003.62.046.9.28.232.196.297.463.33.65.029.186.068.612.036.944-.348 3.795-1.86 13.004-2.629 17.255-.323 1.798-.964 2.401-1.584 2.46-1.35.128-2.372-.92-3.677-1.805-2.041-1.385-3.195-2.247-5.178-3.598-2.291-1.562-.805-2.42.5-3.822.341-.368 6.28-5.953 6.393-6.46.014-.063.029-.3-.109-.424-.134-.125-.333-.082-.479-.048-.206.048-3.466 2.278-9.79 6.69-.924.659-1.761.98-2.516.962-.826-.018-2.422-.484-3.607-.883-1.45-.488-2.607-.746-2.506-1.576.051-.432.627-.874 1.726-1.326z" fill="#fff"/></g><defs><clipPath id="iclip0_45_2331"><path fill="#fff" d="M0 0h48v48H0z"/></clipPath></defs></svg><svg fill="none" viewBox="0 0 21 20" id="icon-user" xmlns="http://www.w3.org/2000/svg"><g clip-path="url(#jclip0_45_2794)"><path d="M20.815 11l-1.176 1.177-2.41-2.412 1.175-1.177a.647.647 0 01.905 0l1.506 1.506a.647.647 0 010 .906zM9.408 17.576l7.126-7.129 2.411 2.412L11.83 20H9.408v-2.424zm0-5.811C4.21 11.765 0 13.87 0 16.47v2.352h7.056V16.6l4.704-4.706a19.569 19.569 0 00-2.352-.13zM9.408 0a4.703 4.703 0 00-4.704 4.706 4.707 4.707 0 004.704 4.706 4.703 4.703 0 004.704-4.706A4.707 4.707 0 009.408 0z" fill="#F26123"/></g><defs><clipPath id="jclip0_45_2794"><path fill="#fff" d="M0 0h21v20H0z"/></clipPath></defs></svg><svg fill="none" viewBox="0 0 48 48" id="icon-vk" xmlns="http://www.w3.org/2000/svg"><g clip-path="url(#kclip0_45_2337)"><path d="M24 6C14.059 6 6 14.059 6 24s8.059 18 18 18 18-8.059 18-18S33.941 6 24 6z" fill="#fff"/><path d="M24 0C10.745 0 0 10.745 0 24s10.745 24 24 24 24-10.745 24-24S37.255 0 24 0zm9.23 27.078s2.123 2.095 2.645 3.067c.015.02.023.04.028.05.212.357.262.635.157.843-.175.345-.775.514-.98.53h-3.75c-.26 0-.805-.068-1.465-.523-.507-.355-1.007-.938-1.495-1.505-.728-.845-1.358-1.575-1.992-1.575-.081 0-.161.012-.238.038-.48.154-1.095.84-1.095 2.665 0 .57-.45.897-.768.897H22.56c-.585 0-3.633-.205-6.332-3.053-3.306-3.487-6.28-10.482-6.306-10.547-.187-.453.2-.695.623-.695h3.787c.505 0 .67.308.785.58.135.317.63 1.58 1.443 3 1.318 2.315 2.125 3.255 2.773 3.255a.75.75 0 00.347-.09c.845-.47.688-3.483.65-4.108 0-.117-.002-1.347-.435-1.937-.31-.427-.837-.59-1.157-.65.129-.179.3-.324.497-.422.58-.29 1.625-.333 2.663-.333h.577c1.125.015 1.415.087 1.822.19.825.198.843.73.77 2.553a39.754 39.754 0 00-.044 1.792c0 .15-.008.31-.008.48-.025.928-.055 1.98.6 2.413a.54.54 0 00.285.082c.228 0 .913 0 2.768-3.183a24.299 24.299 0 001.487-3.184c.037-.066.147-.265.277-.343a.665.665 0 01.31-.072h4.453c.485 0 .818.072.88.26.11.297-.02 1.204-2.053 3.957l-.907 1.197c-1.843 2.415-1.843 2.538.115 4.37z" fill="#58595B"/></g><defs><clipPath id="kclip0_45_2337"><path fill="#fff" d="M0 0h48v48H0z"/></clipPath></defs></svg><svg fill="none" viewBox="0 0 48 48" id="icon-ya" xmlns="http://www.w3.org/2000/svg"><g clip-path="url(#lclip0_45_2334)"><path d="M24 0A24.007 24.007 0 000 24a24.007 24.007 0 0024 24 24.007 24.007 0 0024-24A24.007 24.007 0 0024 0z" fill="#fff"/><path d="M46.94 22.937h.012a1.05 1.05 0 001.044-1.143C46.944 10.222 37.783 1.058 26.21.004a1.048 1.048 0 00-1.143 1.056c.182 15.378 2.21 21.662 21.873 21.877zm0 2.125c-19.661.215-21.689 6.499-21.871 21.878a1.048 1.048 0 001.143 1.056c11.572-1.054 20.733-10.218 21.784-21.79a1.047 1.047 0 00-.275-.806 1.105 1.105 0 00-.78-.338zM21.72.01C10.184 1.093 1.052 10.256.005 21.796a1.047 1.047 0 001.044 1.142h.012c19.598-.225 21.62-6.506 21.805-21.874A1.051 1.051 0 0022.53.28c-.22-.201-.515-.3-.81-.272zM1.06 25.06c-.326-.037-.581.119-.781.337-.202.217-.301.51-.275.805 1.047 11.54 10.18 20.703 21.715 21.788a1.05 1.05 0 001.146-1.056C22.681 31.566 20.66 25.285 1.06 25.06z" fill="#58595B"/></g><defs><clipPath id="lclip0_45_2334"><path fill="#fff" d="M0 0h48v48H0z"/></clipPath></defs></svg><svg fill="none" viewBox="0 0 150 40" id="logo" xmlns="http://www.w3.org/2000/svg"><g clip-path="url(#mclip0_1_29)"><path d="M5.21 33.65c.05.029.085.068.109.113.022.048.018.103-.013.167l-.424.721c-.044.06-.088.092-.132.101-.044.01-.096-.006-.158-.043a2.198 2.198 0 00-.588-.306 2.05 2.05 0 00-.67-.11 1.97 1.97 0 00-1.462.626c-.18.192-.321.417-.423.678-.1.26-.15.538-.15.835 0 .294.05.571.15.828a2.011 2.011 0 001.065 1.131c.249.112.52.167.82.167a2.109 2.109 0 001.267-.416c.064-.037.118-.054.16-.048.042.006.086.038.129.097l.434.73c.031.064.035.117.013.162a.281.281 0 01-.11.108c-.271.185-.567.327-.886.427-.32.101-.653.152-1 .152-.309 0-.606-.04-.89-.12a3.281 3.281 0 01-1.473-.858 3.35 3.35 0 01-.86-1.47 3.315 3.315 0 01-.118-.89 3.305 3.305 0 01.455-1.69 3.294 3.294 0 011.198-1.203c.248-.144.513-.257.799-.337.283-.08.58-.12.89-.12a3.286 3.286 0 011.868.568zM8.135 33.37c0-.053.022-.097.067-.136a.228.228 0 01.153-.056h4.464c.053 0 .102.016.148.047.044.033.07.08.077.145v.77c0 .063-.02.119-.058.164-.038.045-.093.067-.167.067h-1.587v5.08a.16.16 0 01-.017.07.397.397 0 01-.044.073.204.204 0 01-.063.057.151.151 0 01-.077.022h-.875a.147.147 0 01-.068-.02.32.32 0 01-.07-.05.268.268 0 01-.054-.073.155.155 0 01-.022-.08v-5.079H8.355c-.06 0-.11-.02-.153-.06a.22.22 0 01-.067-.172v-.77zM19.963 35.264a.978.978 0 00-.547-.868.84.84 0 00-.367-.081h-1.212v1.894h1.212a.86.86 0 00.364-.079.93.93 0 00.482-.511.954.954 0 00.068-.355zm-3.421-1.836a.26.26 0 01.061-.182c.041-.046.101-.069.18-.069h2.449c.294 0 .566.059.816.173a2.09 2.09 0 011.07 1.131 2.104 2.104 0 01.003 1.567 2.09 2.09 0 01-.417.664 2.05 2.05 0 01-.639.462 1.888 1.888 0 01-.807.172h-1.421v2.095c0 .155-.079.232-.237.232h-.822c-.076 0-.134-.02-.175-.06-.04-.038-.061-.096-.061-.172v-6.013zM26.187 37.324h1.854l-.923-2.261-.931 2.261zm.424-4.002a.309.309 0 01.083-.103c.035-.028.092-.041.171-.041h.507a.23.23 0 01.148.041.303.303 0 01.084.103l2.602 6.15v.026a.19.19 0 01-.043.12c-.03.038-.095.055-.197.055h-.84a.22.22 0 01-.125-.028.212.212 0 01-.068-.107l-.432-1.02h-2.774l-.433 1.02c-.026.09-.08.135-.161.135h-.91c-.073 0-.124-.013-.151-.041-.028-.029-.042-.069-.042-.12 0-.006.219-.524.656-1.553.438-1.03 1.08-2.575 1.925-4.637zM38.473 39.376a.537.537 0 01.055.097c.013.028.02.056.024.083 0 .079-.047.117-.14.117h-1.037a.259.259 0 01-.158-.05.426.426 0 01-.117-.13c-.227-.334-.456-.672-.687-1.009-.23-.34-.458-.675-.682-1.011-.227.342-.454.677-.678 1.011-.225.331-.45.67-.678 1.01a.546.546 0 01-.125.127.263.263 0 01-.156.052h-1.036c-.099 0-.148-.038-.148-.117 0-.027.013-.065.04-.11l.077-.126 1.977-2.928a154.68 154.68 0 01-.417-.623l-.45-.67a212.546 212.546 0 00-1.118-1.646c-.044-.067-.066-.12-.066-.162 0-.044.018-.073.055-.09a.354.354 0 01.142-.023h.98c.084 0 .148.022.192.068.044.045.094.108.149.19l1.26 1.872 1.311-1.934a.416.416 0 01.32-.197h.931c.068 0 .12.008.159.023.038.015.056.046.056.096a.436.436 0 01-.056.148l-1.991 2.948 2.012 2.984zM42.261 36.432c0 .294.05.571.15.828.102.259.242.485.423.677a1.98 1.98 0 001.462.621 1.983 1.983 0 001.46-.621c.18-.192.322-.418.425-.676.102-.258.153-.535.153-.829 0-.297-.052-.575-.153-.836a2.108 2.108 0 00-.425-.677 1.973 1.973 0 00-1.46-.626 1.97 1.97 0 00-1.462.626c-.18.192-.321.417-.422.677a2.3 2.3 0 00-.151.836zm-1.299 0a3.334 3.334 0 01.978-2.371 3.325 3.325 0 011.474-.86c.284-.08.58-.12.89-.12.306 0 .602.04.888.12a3.364 3.364 0 011.478.86c.204.205.379.431.523.681.144.248.257.516.337.8.08.283.12.58.12.89 0 .31-.04.605-.12.89-.08.284-.193.549-.337.796a3.41 3.41 0 01-1.2 1.197 3.318 3.318 0 01-.801.336 3.32 3.32 0 01-.888.119c-.31 0-.606-.04-.89-.12a3.296 3.296 0 01-1.474-.858 3.35 3.35 0 01-.86-1.47 3.344 3.344 0 01-.118-.89zM52.225 36.835v1.705h1.566a.714.714 0 00.312-.068.846.846 0 00.497-.767.852.852 0 00-.063-.32.973.973 0 00-.173-.28.866.866 0 00-.256-.195.672.672 0 00-.317-.075h-1.566zm2.082-1.824a.65.65 0 00-.214-.513c-.144-.125-.33-.187-.56-.187h-1.308v1.49h1.3a.785.785 0 00.564-.228.747.747 0 00.16-.251.848.848 0 00.058-.311zm1.295-.023c0 .237-.04.457-.12.664a1.61 1.61 0 01-.34.535 2.162 2.162 0 01.563.68c.068.133.122.273.16.42a1.91 1.91 0 01-.09 1.19 1.95 1.95 0 01-.998 1.04 1.73 1.73 0 01-.732.156H51.17a.253.253 0 01-.174-.06c-.044-.038-.067-.096-.067-.172v-6.013c0-.076.022-.137.064-.182.042-.046.1-.068.177-.068h2.598a1.836 1.836 0 011.3.523c.165.16.296.352.39.573.095.22.143.457.143.714zM60.846 37.324h1.855l-.923-2.261-.932 2.261zm.425-4.002a.309.309 0 01.082-.103c.035-.028.092-.041.171-.041h.507a.23.23 0 01.148.041.295.295 0 01.084.103l2.603 6.15v.026a.189.189 0 01-.043.12c-.03.038-.095.055-.197.055h-.84a.22.22 0 01-.126-.028.212.212 0 01-.067-.107l-.433-1.02h-2.773l-.433 1.02c-.027.09-.08.135-.162.135h-.91c-.073 0-.123-.013-.15-.041-.029-.029-.042-.069-.042-.12 0-.006.218-.524.655-1.553.438-1.03 1.08-2.575 1.925-4.637zM68.853 35.644c.04.112.096.21.17.296a.797.797 0 00.278.204c.111.049.237.074.376.074h1.526v-1.847h-1.495a.84.84 0 00-.374.084.948.948 0 00-.474.51.872.872 0 00-.067.33c0 .122.02.24.06.35zm3.64 3.845c0 .065-.017.111-.055.14a.222.222 0 01-.136.044h-.906c-.128 0-.193-.06-.193-.184v-2.086h-1.347l-.97 2.135c-.033.09-.088.135-.167.135h-1.045c-.073 0-.123-.013-.151-.041-.027-.029-.041-.069-.041-.12a.05.05 0 01.004-.02.05.05 0 00.004-.02l1.116-2.34c-.157-.09-.302-.2-.434-.328a2.089 2.089 0 01-.625-1.5 2.116 2.116 0 011.28-1.959c.258-.11.536-.167.837-.167h2.638c.128 0 .192.07.192.21v6.1zM82.016 35.955c.125 0 .267-.058.426-.173.159-.119.309-.28.448-.487.05-.07.094-.136.134-.195l.11-.168c.033-.053.065-.103.098-.151l.096-.147c.143-.215.284-.413.424-.592.14-.18.294-.335.46-.464.166-.13.352-.23.56-.302.207-.072.45-.107.73-.107.108 0 .162.053.162.162v.779a.252.252 0 01-.05.123.134.134 0 01-.117.056c-.157 0-.324.065-.5.197-.177.13-.35.306-.519.525-.085.11-.166.223-.246.339l-.233.336a9.41 9.41 0 01-.213.304c-.07.094-.132.173-.187.237l2.769 3.31h-.005a.217.217 0 01.035.056.669.669 0 01.022.05c-.008.02-.033.03-.074.03h-1.325a.16.16 0 01-.09-.026.453.453 0 01-.081-.066 1.032 1.032 0 01-.079-.089 1.63 1.63 0 00-.082-.098l-1.934-2.358a1.11 1.11 0 01-.357.163 1.939 1.939 0 01-.382.064v2.218c0 .128-.067.192-.202.192h-.826c-.131 0-.197-.064-.197-.192V33.37c0-.055.016-.101.05-.137.034-.037.081-.055.143-.055h.83c.05 0 .096.018.139.052a.172.172 0 01.063.14v2.585zM90.759 36.432c0 .294.05.571.15.828a2.013 2.013 0 001.065 1.131c.25.112.522.167.82.167a1.982 1.982 0 001.46-.621c.18-.192.322-.418.424-.676.103-.258.154-.535.154-.829a2.27 2.27 0 00-.153-.836 2.1 2.1 0 00-.425-.677 1.972 1.972 0 00-1.46-.626 1.973 1.973 0 00-1.462.626c-.18.192-.321.417-.423.677-.1.26-.15.539-.15.836zm-1.299 0a3.334 3.334 0 011.653-2.893 3.42 3.42 0 01.799-.337c.284-.08.58-.12.89-.12.306 0 .601.04.888.12a3.355 3.355 0 011.479.86c.203.204.378.43.522.68.144.248.256.516.337.8.08.283.12.58.12.89a3.285 3.285 0 01-.457 1.686 3.4 3.4 0 01-1.2 1.197 3.318 3.318 0 01-.801.336c-.287.079-.582.119-.888.119-.31 0-.606-.04-.89-.12a3.293 3.293 0 01-1.474-.858 3.35 3.35 0 01-.86-1.47 3.344 3.344 0 01-.118-.89zM102.359 39.534c-.041 0-.081-.023-.12-.066a.604.604 0 01-.09-.124l-.707-1.91c-.235-.633-.469-1.27-.701-1.912l-.407 3.924a.265.265 0 01-.071.166c-.041.04-.1.061-.179.061h-.796c-.152 0-.228-.081-.228-.245l.622-6.023a.25.25 0 01.075-.159.22.22 0 01.17-.069h1.019c.058 0 .107.019.146.056a.353.353 0 01.09.141c.12.336.242.676.37 1.021l.373 1.017.806 2.2 1.543-4.233v.004a.286.286 0 01.096-.155.245.245 0 01.153-.05h1.016c.067 0 .123.022.168.069.045.043.07.097.077.158l.621 6.036c0 .076-.021.134-.062.173a.225.225 0 01-.165.06h-.797a.24.24 0 01-.175-.062.26.26 0 01-.07-.166l-.411-3.924-1.4 3.797a.77.77 0 01-.1.14c-.044.05-.086.075-.127.075h-.739zM114.592 33.178c.047 0 .087.015.12.046.034.03.051.073.051.129v6.136c0 .057-.018.1-.052.133a.192.192 0 01-.141.051h-.853a.193.193 0 01-.137-.052.179.179 0 01-.055-.137v-5.15h-2.594v5.155c0 .057-.019.1-.057.133a.197.197 0 01-.14.051h-.857a.2.2 0 01-.133-.047.17.17 0 01-.055-.132v-6.136c0-.12.056-.18.167-.18h4.736zM120.051 37.324h1.855l-.923-2.261-.932 2.261zm.425-4.002a.315.315 0 01.082-.103c.035-.028.093-.041.171-.041h.507c.065 0 .114.013.149.041a.294.294 0 01.083.103l2.603 6.15v.026a.19.19 0 01-.044.12c-.029.038-.095.055-.196.055h-.841a.223.223 0 01-.125-.028.217.217 0 01-.067-.107l-.432-1.02h-2.774l-.434 1.02c-.025.09-.08.135-.161.135h-.91c-.073 0-.123-.013-.15-.041-.028-.029-.042-.069-.042-.12a455.327 455.327 0 002.581-6.189zM127.124 33.37c0-.043.018-.087.053-.128a.161.161 0 01.131-.064h.905c.044 0 .089.02.134.056a.173.173 0 01.068.136v2.261h2.895V33.37c0-.053.019-.097.058-.136a.198.198 0 01.143-.056h.867a.26.26 0 01.151.052.164.164 0 01.071.14v6.112c0 .127-.074.191-.222.191h-.867a.224.224 0 01-.139-.047c-.041-.033-.062-.081-.062-.144v-2.656h-2.895v2.656a.173.173 0 01-.063.14.247.247 0 01-.16.051h-.884c-.122 0-.184-.064-.184-.191V33.37zM141.847 39.482c0 .127-.064.191-.192.191h-.883c-.138 0-.201-.064-.193-.191v-4.327l-3.041 4.374c-.034.04-.065.074-.093.103a.122.122 0 01-.09.041h-.931c-.143 0-.214-.064-.214-.191V33.37c0-.058.024-.105.074-.14a.25.25 0 01.14-.052h.884c.032 0 .067.009.104.028a.186.186 0 01.087.107v4.056l2.874-4.056a.224.224 0 01.111-.1.35.35 0 01.142-.035h1.029c.063 0 .112.019.143.056a.2.2 0 01.049.136v6.112zM146.359 35.644c.04.112.096.21.17.296a.805.805 0 00.279.204c.11.049.236.074.375.074h1.527v-1.847h-1.496a.843.843 0 00-.374.084.95.95 0 00-.474.51.87.87 0 00-.066.33c0 .122.02.24.059.35zM150 39.49c0 .065-.018.111-.056.14a.224.224 0 01-.136.044h-.906c-.128 0-.192-.06-.192-.184v-2.086h-1.347l-.971 2.135c-.032.09-.088.135-.167.135h-1.045c-.072 0-.123-.013-.151-.041a.167.167 0 01-.041-.12c0-.007.001-.013.004-.02a.05.05 0 00.004-.02l1.116-2.34c-.157-.09-.302-.2-.433-.328a2.046 2.046 0 01-.548-.932 2.035 2.035 0 01-.077-.568 2.124 2.124 0 01.607-1.5 2.087 2.087 0 011.509-.626h2.638c.129 0 .192.07.192.21v6.1z" fill="#5B5B5B"/><path fill-rule="evenodd" clip-rule="evenodd" d="M122.622 18.331H99.851c1.93 4.374 6.297 7.43 11.386 7.43 5.087 0 9.455-3.056 11.385-7.43z" fill="url(#mpaint0_radial_1_29)"/><path fill-rule="evenodd" clip-rule="evenodd" d="M98.966 12.468h5.573a6.664 6.664 0 0113.328 0h5.574c0-6.758-5.479-12.238-12.238-12.238-6.759 0-12.237 5.48-12.237 12.238z" fill="url(#mpaint1_linear_1_29)"/><path d="M0 1.886h15.585V7.46h-9.65v17.65H0V1.886zM29.16 6.273c3.406 0 5.367 2.219 5.316 5.057H23.07c.619-3.044 2.529-5.057 6.09-5.057zm6.397 13.146c-1.361.735-3.209 1.304-5.314 1.304-3.664 0-6.45-1.91-6.967-5.418H40.05c.257-.878.36-1.756.36-3.2 0-6.503-5.005-10.787-10.992-10.787-7.638 0-12.283 5.419-12.283 12.18 0 7.329 5.006 12.18 12.49 12.18 2.043 0 4.105-.368 5.932-1.128v-5.13zM46.994 1.886l-.362 7.226c-.476 8.287-2.842 10.551-4.786 10.688v5.34l.038.435c6.245 0 9.342-2.633 10.477-15.277l.155-2.477h6.142v17.29h5.934V1.885H46.994zM71.198 25.11V1.886h5.935v14.709l10.838-14.71h5.935V25.11h-5.935V10.402L77.133 25.11h-5.935zM149.476 21.653c-1.961 2.631-5.47 4.024-9.238 4.024-7.535 0-12.592-4.85-12.592-12.179 0-6.761 4.954-12.18 12.025-12.18 3.818 0 7.173.98 9.341 3.149l-2.787 4.696c-1.755-1.703-3.665-2.271-5.781-2.271-3.302 0-6.451 2.529-6.451 6.606 0 4.129 3.2 6.658 6.71 6.658 2.529 0 4.489-1.187 5.986-2.838l2.787 4.335z" fill="#5B5B5B"/></g><defs><radialGradient id="mpaint0_radial_1_29" cx="0" cy="0" r="1" gradientUnits="userSpaceOnUse" gradientTransform="matrix(-.48894 18.58007 -18.57937 -.48892 111.464 13.873)"><stop stop-color="#FFDE38"/><stop offset=".169" stop-color="#FFDE38"/><stop offset="1" stop-color="#95C12B"/></radialGradient><linearGradient id="mpaint1_linear_1_29" x1="110.429" y1="21.701" x2="112.122" y2=".955" gradientUnits="userSpaceOnUse"><stop stop-color="#FFDE3C"/><stop offset=".388" stop-color="#FFDE3C"/><stop offset="1" stop-color="#EA5E20"/></linearGradient><clipPath id="mclip0_1_29"><path fill="#fff" d="M0 0h150v40H0z"/></clipPath></defs></svg><svg fill="none" viewBox="0 0 25 26" id="logo-mini" xmlns="http://www.w3.org/2000/svg"><g clip-path="url(#nclip0_546_119)" fill-rule="evenodd" clip-rule="evenodd"><path d="M24 19H1c1.95 4.12 6.36 7 11.5 7 5.139 0 9.55-2.88 11.5-7z" fill="url(#npaint0_radial_546_119)"/><path d="M0 13h5.693c0-3.91 3.048-7.079 6.807-7.079 3.759 0 6.806 3.17 6.806 7.079H25c0-7.18-5.596-13-12.5-13S0 5.82 0 13z" fill="url(#npaint1_linear_546_119)"/></g><defs><radialGradient id="npaint0_radial_546_119" cx="0" cy="0" r="1" gradientUnits="userSpaceOnUse" gradientTransform="matrix(-.49386 17.50433 -18.76423 -.5294 12.73 14.8)"><stop stop-color="#FFDE38"/><stop offset=".169" stop-color="#FFDE38"/><stop offset="1" stop-color="#95C12B"/></radialGradient><linearGradient id="npaint1_linear_546_119" x1="11.709" y1="22.808" x2="13.578" y2=".781" gradientUnits="userSpaceOnUse"><stop stop-color="#FFDE3C"/><stop offset=".388" stop-color="#FFDE3C"/><stop offset="1" stop-color="#EA5E20"/></linearGradient><clipPath id="nclip0_546_119"><path fill="#fff" d="M0 0h25v26H0z"/></clipPath></defs></svg></svg>