<svg width="6" height="10" xmlns="http://www.w3.org/2000/svg"><g clip-path="url(#clip0_697_2029)"><path d="M4.811.198L.152 4.63a.464.464 0 00-.118.171A.548.548 0 000 5c0 .07.011.136.034.198a.456.456 0 00.118.171l4.66 4.446c.128.123.29.185.483.185s.36-.066.498-.198a.62.62 0 000-.923L1.728 5l4.065-3.879a.605.605 0 00.193-.455.625.625 0 00-.207-.468A.679.679 0 005.295 0a.679.679 0 00-.484.198z"/></g><defs><clipPath id="clip0_697_2029"><path fill="#fff" transform="matrix(1 0 0 -1 0 10)" d="M0 0h6v10H0z"/></clipPath></defs></svg> 9.16447 5.93088 9.01055 5.79263 8.87863L1.72812 5L5.79263 1.12137C5.92166 0.99824 5.98618 0.846438 5.98618 0.665963C5.98618 0.485489 5.91705 0.329463 5.7788 0.197889C5.64055 0.0659628 5.47926 0 5.29493 0C5.1106 0 4.94931 0.0659628 4.81106 0.197889Z" />
</g>
<defs>
<clipPath id="clip0_697_2029">
<rect width="6" height="10" fill="white" transform="matrix(1 0 0 -1 0 10)"/>
</clipPath>
</defs>
</svg>
