<svg width="6" height="10" viewBox="0 0 6 10"  xmlns="http://www.w3.org/2000/svg">
<g id="1" clip-path="url(#clip0_697_2029)">
<path id="Vector" d="M4.81106 0.197889L0.152082 4.63061C0.0967825 4.68338 0.05752 4.74055 0.0342942 4.80211C0.0110684 4.86368 -0.000360022 4.92964 8.64062e-06 5C8.64062e-06 5.07036 0.0114371 5.13632 0.0342942 5.19789C0.0571513 5.25945 0.0964138 5.31662 0.152082 5.36939L4.81106 9.8153C4.94009 9.93843 5.10138 10 5.29493 10C5.48848 10 5.65438 9.93404 5.79263 9.80211C5.93088 9.67018 6 9.51627 6 9.34037C6 9.16447 5.93088 9.01055 5.79263 8.87863L1.72812 5L5.79263 1.12137C5.92166 0.99824 5.98618 0.846438 5.98618 0.665963C5.98618 0.485489 5.91705 0.329463 5.7788 0.197889C5.64055 0.0659628 5.47926 0 5.29493 0C5.1106 0 4.94931 0.0659628 4.81106 0.197889Z" />
</g>
<defs>
<clipPath id="clip0_697_2029">
<rect width="6" height="10" fill="white" transform="matrix(1 0 0 -1 0 10)"/>
</clipPath>
</defs>
</svg>
