<svg width="100" height="100" viewBox="0 0 100 100" fill="none" xmlns="http://www.w3.org/2000/svg">
<g id="02 1" clip-path="url(#clip0_349_940)">
<path id="Vector" d="M0 68.7806C0.533194 67.237 1.46769 65.8644 2.70685 64.8046C5.98577 61.4867 9.22283 58.1408 12.4738 54.7808C12.0992 54.2405 11.5829 53.8146 10.9821 53.5503C10.3813 53.2859 9.7193 53.1934 9.06935 53.2829C8.3548 53.3529 7.63515 53.3529 6.92061 53.2829C6.59166 53.33 6.25616 53.2795 5.95549 53.1375C5.65481 52.9956 5.40211 52.7685 5.22854 52.4842C5.05498 52.1999 4.96813 51.8709 4.97872 51.5376C4.98931 51.2044 5.09686 50.8816 5.28812 50.6089C6.37645 48.341 7.56244 46.129 8.62285 43.8611C9.32683 42.0332 10.4114 40.377 11.8041 39.0032C12.9992 37.989 14.4142 37.2694 15.936 36.9021C17.4578 36.5347 19.0442 36.5297 20.5683 36.8875C22.0924 37.2454 23.5118 37.956 24.7132 38.9627C25.9146 39.9694 26.8645 41.2442 27.4871 42.6851C28.5615 45.233 29.873 47.669 31.1009 50.1609C32.1194 52.2329 31.4916 53.2829 29.2172 53.2829C28.6975 53.3318 28.1743 53.3318 27.6545 53.2829C26.9424 53.1903 26.2187 53.3078 25.5721 53.6211C24.9254 53.9343 24.3836 54.4298 24.0128 55.0468L32.9706 61.5427L42.5003 51.5469C40.7727 50.3061 39.4823 48.547 38.8151 46.5231C38.1478 44.4992 38.1382 42.315 38.7876 40.2853C39.437 38.2555 40.7119 36.4851 42.4286 35.229C44.1452 33.9729 46.215 33.2961 48.3396 33.2961C50.4642 33.2961 52.534 33.9729 54.2506 35.229C55.9673 36.4851 57.2422 38.2555 57.8916 40.2853C58.541 42.315 58.5314 44.4992 57.8641 46.5231C57.1969 48.547 55.9065 50.3061 54.1789 51.5469C58.1136 55.5648 62.0622 59.6248 66.0388 63.6567C67.7131 65.3646 68.9828 65.3646 70.7269 63.6567L74.7872 59.8627C73.4406 58.7935 72.4542 57.3347 71.9619 55.684C71.4696 54.0333 71.4951 52.2706 72.035 50.6349C72.5749 48.9993 73.6031 47.5698 74.9801 46.5402C76.3571 45.5107 78.0164 44.931 79.7329 44.8797C81.4494 44.8284 83.1401 45.308 84.5758 46.2534C86.0114 47.1988 87.1226 48.5644 87.7586 50.1649C88.3946 51.7654 88.5247 53.5234 88.1311 55.2006C87.7376 56.8778 86.8396 58.393 85.5588 59.5408L94.084 67.9406C95.577 69.4386 97.0978 70.9085 98.5489 72.4625C99.2529 73.1568 99.73 74.0494 99.9169 75.022C100.104 75.9946 99.9917 77.0012 99.5954 77.9084C99.2703 78.8411 98.6763 79.6559 97.8888 80.2492C97.1012 80.8424 96.1557 81.1874 95.1723 81.2403C94.4928 81.3244 93.8033 81.2604 93.1507 81.0526C92.4981 80.8448 91.8979 80.4982 91.3911 80.0363C90.3865 79.1544 89.4237 78.2304 88.2378 77.1384C88.2378 77.6984 88.2378 78.0344 88.2378 78.3704C88.2378 83.9703 88.2378 89.5702 88.2378 95.17C88.2319 95.9506 88.0409 96.7184 87.6805 97.4101C87.32 98.1018 86.8005 98.6974 86.1651 99.1476C85.5296 99.5978 84.7963 99.8896 84.0261 99.9988C83.2558 100.108 82.4707 100.032 81.7357 99.7759C81.091 99.5085 80.4661 99.1951 79.8661 98.838C79.1245 99.4781 78.212 99.8857 77.2417 100.01C76.2714 100.135 75.286 99.9704 74.4078 99.5381C73.5297 99.1057 72.7973 98.4242 72.3017 97.578C71.8061 96.7318 71.5691 95.7582 71.6199 94.778C71.6199 89.0662 71.6199 83.3543 71.6199 77.6284V76.4804C70.8386 76.6344 70.127 76.8024 69.4154 76.9004C68.1905 77.1049 66.9352 77.0257 65.7455 76.6691C64.5557 76.3124 63.4629 75.6876 62.5506 74.8424C60.8204 73.1905 59.2019 71.4545 57.4996 69.7465C57.2764 69.5226 57.0392 69.3266 56.6485 68.9486V70.1665C56.6485 78.3704 56.6485 86.5602 56.6485 94.764C56.6922 95.4896 56.5736 96.2158 56.3013 96.8894C56.029 97.563 55.6099 98.1669 55.0747 98.6569C54.5395 99.1469 53.9019 99.5105 53.2085 99.7211C52.5151 99.9316 51.7835 99.9839 51.0674 99.8739C50.0445 99.6362 49.0486 99.2937 48.0954 98.852C47.51 99.3395 46.8187 99.6822 46.077 99.8524C45.3354 100.023 44.5643 100.016 43.8259 99.8319C42.6726 99.5703 41.6511 98.9023 40.947 97.9492C40.2429 96.9962 39.903 95.8213 39.9888 94.6381C39.9888 86.4995 39.9888 78.3657 39.9888 70.2365V68.9206L37.8122 71.1465C36.8258 72.2772 35.4821 73.0334 34.0062 73.2882C32.5303 73.5431 31.0119 73.2812 29.7056 72.5465C29.008 72.2105 28.3103 71.8465 27.501 71.4125C28.2824 74.5625 29.0219 77.5724 29.7614 80.5683C30.3614 82.9343 30.9474 85.3142 31.5334 87.6802C31.6542 87.9628 31.6973 88.2728 31.6583 88.5779C31.6193 88.8829 31.4996 89.1719 31.3116 89.4148C31.1236 89.6577 30.8742 89.8457 30.5894 89.9592C30.3045 90.0727 29.9945 90.1075 29.6916 90.0601C28.7149 90.0601 27.7522 90.0601 26.6639 90.0601C26.6639 91.6841 26.6639 93.2101 26.6639 94.736C26.741 95.9057 26.406 97.0652 25.7173 98.0121C25.0287 98.959 24.0303 99.6329 22.8966 99.9159C22.1428 100.121 21.3507 100.141 20.5878 99.9728C19.8249 99.8046 19.1139 99.4536 18.5154 98.95C17.6226 99.3929 16.6878 99.7447 15.7248 99.9999C14.996 100.113 14.2512 100.06 13.5455 99.8449C12.8398 99.6302 12.1911 99.2592 11.6474 98.7594C11.1037 98.2595 10.6788 97.6435 10.404 96.9568C10.1293 96.2702 10.0117 95.5304 10.06 94.792C10.06 93.2241 10.06 91.6561 10.06 89.9621H7.11595C5.42765 89.9621 4.74396 89.0942 5.16255 87.4422C6.19506 83.2423 7.24152 79.0424 8.28798 74.8424C8.35775 74.5625 8.41356 74.2825 8.45542 74.0725C7.47955 74.4377 6.47001 74.705 5.44161 74.8705C4.31363 74.9578 3.18941 74.6594 2.252 74.0238C1.31459 73.3883 0.619201 72.4531 0.279055 71.3705C0.200283 71.1635 0.107034 70.9623 0 70.7685V68.7806ZM27.9057 86.6162C27.808 86.1962 27.7522 85.8742 27.6685 85.5662L23.5384 69.1446C23.3291 68.2906 23.2036 67.4506 24.0128 66.8206C24.8221 66.1906 25.5337 66.5126 26.2871 66.9046C27.8917 67.7446 29.5103 68.6126 31.1427 69.4106C31.8324 69.862 32.6651 70.039 33.478 69.9069C34.2909 69.7749 35.0254 69.3433 35.5379 68.6966C36.3611 67.7306 37.3238 66.8906 38.2168 65.9806L40.3656 63.8387C40.5809 63.546 40.8951 63.342 41.2494 63.2647C41.6038 63.1874 41.974 63.2421 42.2911 63.4187C42.7527 63.8779 43.1015 64.4387 43.3096 65.0566C43.3664 65.3479 43.3664 65.6474 43.3096 65.9386V94.1481C43.2748 94.5019 43.2748 94.8582 43.3096 95.212C43.3678 95.5801 43.5494 95.9173 43.8243 96.1679C44.0992 96.4185 44.4511 96.5675 44.8219 96.5903C45.1926 96.6132 45.56 96.5085 45.8635 96.2935C46.1669 96.0786 46.3882 95.7662 46.4909 95.408C46.573 95.0265 46.6058 94.636 46.5885 94.2461V75.7384C46.5676 75.4121 46.5676 75.0848 46.5885 74.7584C46.6404 74.3609 46.8347 73.9958 47.1351 73.7314C47.4354 73.4669 47.8214 73.3211 48.221 73.3211C48.6206 73.3211 49.0066 73.4669 49.307 73.7314C49.6073 73.9958 49.8016 74.3609 49.8535 74.7584C49.8816 75.1172 49.8816 75.4777 49.8535 75.8364V94.5961C49.8535 95.884 50.4535 96.612 51.472 96.626C52.4906 96.64 53.3138 95.912 53.3138 94.582C53.3138 94.3161 53.3138 94.0641 53.3138 93.7981C53.3138 84.3623 53.3138 74.9451 53.3138 65.5466C53.3138 64.6367 53.4394 63.7967 54.3603 63.4187C55.2811 63.0407 55.9648 63.5307 56.6067 64.1887C59.0903 66.7086 61.5878 69.2426 64.1412 71.7205C64.7959 72.393 65.5789 72.9262 66.4434 73.2885C67.3224 73.6535 68.2854 73.7657 69.2244 73.6124C70.1633 73.4591 71.0412 73.0464 71.7595 72.4205C72.4431 71.8745 73.1547 71.3845 74.0477 71.8465C74.9407 72.3085 75.0244 73.1485 74.9965 74.0305C74.9965 74.3945 74.9965 74.7444 74.9965 75.1084C74.9965 81.6416 74.9965 88.1375 74.9965 94.5961C74.9965 95.996 75.6104 96.682 76.6569 96.682C77.7034 96.682 78.3033 95.94 78.3173 94.5961V84.9362C78.3173 84.0823 78.3173 83.2283 78.3173 82.3883C78.339 81.9587 78.5282 81.555 78.8441 81.2642C79.16 80.9735 79.5772 80.8191 80.0056 80.8343C80.4387 80.8416 80.8518 81.0184 81.1568 81.3271C81.4618 81.6357 81.6345 82.0517 81.6381 82.4863C81.6381 82.7803 81.6381 83.0743 81.6381 83.3683C81.6381 87.0362 81.6381 90.6948 81.6381 94.3441C81.6223 94.7659 81.6789 95.1874 81.8055 95.59C81.915 95.9372 82.1469 96.2324 82.4576 96.4205C82.7683 96.6085 83.1367 96.6766 83.4938 96.612C83.8373 96.5876 84.1625 96.4468 84.4159 96.2129C84.6694 95.9789 84.8362 95.6655 84.8891 95.324C84.9312 94.9332 84.9312 94.5389 84.8891 94.1481V73.9465C84.8891 73.0505 85.0007 72.2245 85.9216 71.8045C86.8425 71.3845 87.5262 71.9165 88.168 72.5185C89.8423 74.1145 91.5167 75.7244 93.205 77.2924C93.3758 77.4922 93.5861 77.6543 93.8226 77.7685C94.0591 77.8826 94.3166 77.9463 94.5788 77.9555C94.8411 77.9647 95.1024 77.9192 95.3462 77.822C95.5901 77.7247 95.8112 77.5778 95.9955 77.3904C96.1768 77.1963 96.3148 76.9657 96.4005 76.714C96.4861 76.4623 96.5174 76.1952 96.4924 75.9304C96.4673 75.6656 96.3864 75.4092 96.255 75.1782C96.1237 74.9472 95.9448 74.7468 95.7304 74.5905C92.1446 70.9785 88.5866 67.3526 84.9449 63.7967C83.7538 62.5584 82.1315 61.8304 80.4176 61.7651C78.7037 61.6999 77.0311 62.3025 75.75 63.4467C74.7454 64.2727 73.8384 65.2246 72.9594 66.1066C69.8758 69.0186 66.569 68.9066 63.597 65.9946C60.2902 62.5507 56.9276 59.1348 53.5231 55.7468C52.9835 55.2068 52.3789 54.7365 51.7232 54.3469C50.4042 53.5345 48.8423 53.2141 47.3114 53.4419C45.7806 53.6698 44.3786 54.4313 43.3515 55.5928C40.3656 58.5608 37.4076 61.5567 34.4356 64.5246C33.4729 65.4906 32.7892 65.6026 31.7706 64.8746C28.687 62.6487 25.5756 60.4367 22.5478 58.1268C21.3386 57.1374 19.8198 56.6087 18.2597 56.6344C16.6996 56.66 15.1988 57.2382 14.0226 58.2668C10.5902 61.4727 7.26943 64.9026 3.97656 68.3466C3.77753 68.5888 3.62821 68.8681 3.53722 69.1684C3.44622 69.4687 3.41534 69.7842 3.44635 70.0965C3.50101 70.4406 3.65446 70.7612 3.88791 71.0192C4.12136 71.2771 4.4247 71.4612 4.76078 71.5488C5.09687 71.6365 5.45113 71.6239 5.78021 71.5127C6.1093 71.4014 6.39892 71.1963 6.61365 70.9225C7.81359 69.7745 8.94377 68.5566 10.1019 67.3526C10.7437 66.6806 11.4134 66.1626 12.4041 66.6666C13.3947 67.1706 13.4505 67.8146 13.1575 69.0466C12.2506 72.7145 11.3297 76.3824 10.4367 80.0503C9.89256 82.2203 9.36236 84.3763 8.81819 86.6302H11.2739C12.6692 86.6302 13.2971 87.2462 13.311 88.6602C13.311 90.5501 13.311 92.4401 13.311 94.3441C13.3015 94.7315 13.3485 95.1182 13.4505 95.492C13.5367 95.8453 13.7491 96.1545 14.0475 96.3609C14.3458 96.5674 14.7094 96.6567 15.0691 96.612C15.4313 96.6156 15.7825 96.4869 16.0571 96.25C16.3318 96.013 16.5113 95.6839 16.562 95.324C16.6041 94.9659 16.6041 94.6041 16.562 94.2461C16.562 92.3841 16.562 90.5221 16.562 88.6462C16.562 87.3862 17.2457 86.6302 18.2224 86.6162C19.1991 86.6022 19.8828 87.3582 19.8828 88.6182C19.8828 90.4661 19.8828 92.3281 19.8828 94.2181C19.8771 94.6083 19.9145 94.998 19.9944 95.38C20.0856 95.7424 20.2986 96.0622 20.5975 96.2853C20.8963 96.5084 21.2628 96.6213 21.6349 96.6048C22.0071 96.5884 22.3622 96.4436 22.6403 96.195C22.9185 95.9464 23.1026 95.6091 23.1617 95.24C23.1825 94.9184 23.1825 94.5957 23.1617 94.2741C23.1617 92.4681 23.1617 90.6761 23.1617 88.8842C23.1617 87.0922 23.7477 86.6302 25.3942 86.6162H27.9057ZM9.29259 49.8949C10.2531 49.8436 11.216 49.9284 12.1529 50.1469C12.8908 50.5974 13.5664 51.1434 14.1621 51.7709C15.3842 52.7939 16.9389 53.3294 18.5295 53.2752C20.1201 53.2209 21.635 52.5808 22.785 51.4769C23.229 50.9202 23.81 50.4893 24.4706 50.2266C25.1313 49.964 25.8487 49.8786 26.5523 49.9789C26.766 49.9911 26.9803 49.9911 27.1941 49.9789C27.1512 49.8177 27.0999 49.6588 27.0406 49.503C26.1058 47.529 25.1849 45.555 24.25 43.6091C23.7867 42.6409 23.0899 41.804 22.2228 41.1743C21.3556 40.5447 20.3456 40.1421 19.2842 40.003C18.2228 39.864 17.1436 39.9929 16.1444 40.3782C15.1452 40.7634 14.2577 41.3927 13.5622 42.2091C11.9376 44.6531 10.5098 47.2232 9.29259 49.8949ZM48.3605 36.6092C47.0424 36.6065 45.7532 36.9965 44.6563 37.7298C43.5593 38.4631 42.7041 39.5068 42.1991 40.7284C41.694 41.95 41.5619 43.2945 41.8194 44.5916C42.0769 45.8887 42.7124 47.0798 43.6454 48.014C44.5785 48.9482 45.767 49.5834 47.0602 49.839C48.3535 50.0946 49.6933 49.9592 50.9097 49.4499C52.1262 48.9406 53.1645 48.0803 53.8931 46.9782C54.6216 45.876 55.0076 44.5816 55.0021 43.2591C54.9838 41.4939 54.2739 39.8068 53.0259 38.5624C51.7779 37.3181 50.092 36.6165 48.3326 36.6092H48.3605ZM84.9588 53.3109C84.9588 52.3212 84.666 51.3538 84.1174 50.5313C83.5688 49.7088 82.7892 49.0682 81.8774 48.6908C80.9656 48.3134 79.9626 48.216 78.9956 48.4112C78.0286 48.6063 77.1411 49.0851 76.4456 49.7868C75.7501 50.4886 75.2779 51.3818 75.0888 52.3531C74.8998 53.3244 75.0024 54.3302 75.3837 55.243C75.765 56.1557 76.4078 56.9343 77.2306 57.4801C78.0534 58.0259 79.0192 58.3143 80.0056 58.3088C81.3218 58.3014 82.5816 57.7715 83.5098 56.8351C84.4379 55.8986 84.9589 54.6316 84.9588 53.3109Z" fill="#F26123"/>
<path id="Vector_2" d="M51.6115 16.5476C51.6115 17.5976 50.8999 18.1716 49.5744 18.2696C47.3978 18.4376 45.2072 18.5076 43.0724 18.8856C34.3359 20.3653 26.3549 24.7663 20.4269 31.3733C20.1618 31.6533 19.9107 31.9613 19.6316 32.2273C19.3485 32.5698 18.9425 32.7867 18.5012 32.8312C18.06 32.8757 17.619 32.7443 17.2736 32.4653C17.0985 32.3162 16.9562 32.1322 16.8556 31.9251C16.7549 31.7179 16.6983 31.4921 16.6891 31.2618C16.6799 31.0316 16.7184 30.8019 16.8022 30.5874C16.886 30.3728 17.0133 30.178 17.1759 30.0154C18.2363 28.8254 19.3247 27.6354 20.4828 26.5574C26.7656 20.6458 34.6844 16.7804 43.198 15.4697C45.3874 15.18 47.5902 15.0025 49.7977 14.9377C50.0261 14.9027 50.2593 14.9185 50.4809 14.984C50.7026 15.0495 50.9072 15.163 51.0802 15.3166C51.2532 15.4702 51.3905 15.6601 51.4824 15.8728C51.5742 16.0855 51.6183 16.3159 51.6115 16.5476Z" fill="#F26123"/>
<path id="Vector_3" d="M98.2977 56.5588V57.9588C98.2977 59.2328 97.7116 59.9748 96.6931 60.0028C95.6745 60.0308 95.0466 59.3168 94.9629 58.0568C94.8792 56.7968 94.8653 55.5228 94.7536 54.2629C94.3995 50.3678 93.4586 46.5491 91.9631 42.9371C91.8793 42.7271 91.7817 42.5311 91.7119 42.3071C91.5328 41.8984 91.5217 41.4353 91.6811 41.0185C91.8405 40.6016 92.1574 40.2648 92.563 40.0812C92.7717 39.9831 92.9991 39.9317 93.2295 39.9304C93.4599 39.9292 93.6878 39.9782 93.8974 40.0741C94.1071 40.17 94.2935 40.3104 94.4437 40.4856C94.594 40.6609 94.7045 40.8668 94.7676 41.0891C95.6081 43.062 96.3076 45.0924 96.8605 47.165C97.5861 50.2589 98.0186 53.4089 98.5767 56.5448L98.2977 56.5588Z" fill="#F26123"/>
<path id="Vector_4" d="M75.0663 42.8251L74.2431 42.2931C73.8803 42.0551 65.6203 36.4832 62.7041 34.2853C61.1697 33.1623 59.9265 31.6861 59.0792 29.9807C58.2318 28.2754 57.8049 26.3908 57.8346 24.4854C57.8346 21.1115 57.8346 17.7516 57.8346 14.3777V9.00176C57.8166 8.50223 57.9532 8.00937 58.2255 7.59078C58.4978 7.1722 58.8925 6.8484 59.3554 6.66381L74.0896 0.223938C74.4225 0.0714633 74.7841 -0.00744629 75.15 -0.00744629C75.516 -0.00744629 75.8776 0.0714633 76.2105 0.223938L90.9865 6.66381C91.4483 6.8501 91.8419 7.1743 92.1139 7.59248C92.3859 8.01067 92.5233 8.50264 92.5074 9.00176V14.3357C92.5074 17.7236 92.5074 21.1115 92.5074 24.4995C92.524 26.4115 92.0828 28.2996 91.2208 30.0049C90.3589 31.7103 89.1014 33.183 87.5541 34.2993C84.3031 36.7072 76.3919 42.0831 75.9593 42.3071L75.0663 42.8251ZM61.1135 9.43575V14.4057C61.1135 17.7563 61.1135 21.1115 61.1135 24.4715C61.0812 25.8792 61.3908 27.2738 62.0155 28.5347C62.6402 29.7957 63.5614 30.8852 64.6994 31.7093C67.0016 33.4453 72.9595 37.4912 75.2059 39.0172C77.3406 37.6172 82.8939 33.8093 85.6286 31.7793C86.785 30.952 87.7225 29.8538 88.3596 28.5802C88.9967 27.3066 89.3141 25.8961 89.2843 24.4715C89.2843 21.0975 89.2843 17.7096 89.2843 14.3357V9.43575L75.1919 3.27588L61.1135 9.43575Z" fill="#F26123"/>
<path id="Vector_5" d="M74.3548 24.7095C73.9631 24.7123 73.5847 24.5674 73.2944 24.3035C72.4851 23.6035 70.8108 22.0216 69.6387 20.9156L68.7318 20.0616C68.5724 19.9187 68.443 19.7454 68.3513 19.5516C68.2595 19.3579 68.2073 19.1477 68.1977 18.9334C68.188 18.7192 68.2212 18.5051 68.2951 18.3039C68.369 18.1026 68.4823 17.9183 68.6283 17.7615C68.7742 17.6048 68.9499 17.479 69.145 17.3913C69.3402 17.3037 69.5507 17.2561 69.7645 17.2512C69.9782 17.2464 70.1907 17.2845 70.3895 17.3632C70.5884 17.4419 70.7696 17.5597 70.9224 17.7097L71.8433 18.5636L74.2432 20.8596C75.9873 19.0536 79.3499 15.6097 80.9963 13.9297C81.1415 13.7691 81.3175 13.6396 81.5137 13.5489C81.71 13.4582 81.9224 13.4082 82.1384 13.4019C82.3544 13.3956 82.5694 13.4332 82.7706 13.5123C82.9717 13.5914 83.1549 13.7105 83.3091 13.8623C83.4633 14.0142 83.5853 14.1958 83.6679 14.3961C83.7504 14.5965 83.7918 14.8115 83.7895 15.0282C83.7872 15.245 83.7413 15.4591 83.6546 15.6577C83.5678 15.8562 83.442 16.0351 83.2846 16.1837C81.0801 18.4377 75.778 23.8975 75.485 24.2195C75.1856 24.5234 74.7805 24.699 74.3548 24.7095Z" fill="#F26123"/>
</g>
<defs>
<clipPath id="clip0_349_940">
<rect width="100" height="100" fill="white"/>
</clipPath>
</defs>
</svg>
