<svg width="100" height="100" viewBox="0 0 100 100" fill="none" xmlns="http://www.w3.org/2000/svg">
<g clip-path="url(#clip0_349_967)">
<path d="M16.0787 14.1493C16.6054 14.1493 17.1107 14.3576 17.4845 14.7289C17.8583 15.1002 18.0702 15.6043 18.0741 16.1314C18.0839 16.3982 18.0393 16.6643 17.9431 16.9134C17.8469 17.1625 17.701 17.3893 17.5143 17.5802C17.3276 17.771 17.1041 17.9219 16.8573 18.0235C16.6104 18.1251 16.3455 18.1754 16.0787 18.1713C15.5456 18.1713 15.0344 17.9594 14.6575 17.5823C14.2806 17.2051 14.0688 16.6936 14.0688 16.1603C14.0688 15.6269 14.2806 15.1154 14.6575 14.7383C15.0344 14.3612 15.5456 14.1493 16.0787 14.1493Z" fill="#F26123"/>
<path d="M99.5807 43.9182C97.354 27.5409 89.1122 14.983 74.8554 6.77992C60.5986 -1.4232 45.4887 -2.05978 30.2342 4.20469C27.4575 5.48275 24.7629 6.93231 22.166 8.54497C21.7701 8.73824 21.4538 9.06355 21.2718 9.46491C21.0897 9.86628 21.0531 10.3186 21.1683 10.744C21.2407 11.1406 21.4466 11.5004 21.7518 11.7636C22.0569 12.0268 22.4429 12.1775 22.8456 12.1908C23.5135 12.2098 24.1738 12.0446 24.7542 11.7134C33.789 5.66058 44.7105 3.09052 55.4945 4.47958C62.1299 5.18883 68.5223 7.37628 74.2021 10.8813C79.882 14.3863 84.705 19.1198 88.3169 24.7342L88.8953 25.6023C94.4914 34.4554 96.8139 44.9893 95.4598 55.3766C94.7409 62.013 92.5506 68.4052 89.0485 74.0868C85.5464 79.7684 80.821 84.5962 75.2169 88.218C72.9735 89.7407 70.603 91.067 68.1319 92.1821C63.9944 93.9801 59.6054 95.1316 55.1186 95.5965C47.7047 96.4278 40.2001 95.4393 33.2538 92.7165C26.3076 89.9938 20.1288 85.6188 15.2521 79.9699C10.3754 74.321 6.9475 67.5684 5.26499 60.2961C3.58248 53.0239 3.696 45.451 5.59572 38.2325C6.92005 33.3408 9.02439 28.6949 11.8276 24.4738C12.0145 24.2532 12.152 23.9951 12.2309 23.7168C12.3098 23.4386 12.3282 23.1467 12.2849 22.8608C12.2416 22.5748 12.1376 22.3015 11.9799 22.0591C11.8222 21.8168 11.6145 21.611 11.3707 21.4557C11.1269 21.3003 10.8527 21.199 10.5665 21.1586C10.2803 21.1182 9.98875 21.1395 9.71149 21.2212C9.43423 21.3029 9.17768 21.4431 8.95908 21.6323C8.74049 21.8215 8.56492 22.0554 8.44419 22.3181C4.61406 27.9849 2.01334 34.3919 0.809719 41.126C0.477156 43.0068 0.274725 44.9165 0 46.8117V53.0907C0.0777064 53.4392 0.135637 53.7918 0.173512 54.1468C0.44534 57.8453 1.15892 61.4978 2.29902 65.0264C4.81197 72.7895 9.16274 79.8299 14.9808 85.5481C20.7989 91.2663 27.912 95.4928 35.7143 97.8679L36.1914 97.9547C38.056 98.5019 39.9542 98.9272 41.8739 99.2278C46.548 100.026 51.3161 100.109 56.015 99.4738H56.5211C64.1253 98.504 71.3975 95.7683 77.7568 91.4853C84.1161 87.2023 89.3863 81.4906 93.1463 74.8065C95.084 71.4775 96.6501 67.9455 97.8167 64.2741H97.9757C98.0625 63.8546 98.1058 63.6231 98.1637 63.4061C99.9667 57.0761 100.449 50.4427 99.5807 43.9182Z" fill="#F26123"/>
<path d="M85.8012 16.0156C85.8011 16.4146 85.6825 16.8045 85.4603 17.1358C85.2382 17.4671 84.9226 17.7248 84.5536 17.8761C84.1847 18.0274 83.7791 18.0655 83.3885 17.9856C82.9978 17.9056 82.6398 17.7112 82.3599 17.427C82.08 17.1429 81.8909 16.7819 81.8167 16.3899C81.7424 15.9979 81.7863 15.5927 81.9429 15.2258C82.0995 14.8588 82.3616 14.5468 82.6959 14.3294C83.0302 14.1119 83.4216 13.9989 83.8202 14.0046C84.3471 14.0159 84.8487 14.2323 85.2186 14.6078C85.5885 14.9833 85.7975 15.4884 85.8012 16.0156Z" fill="#F26123"/>
<path d="M30.7643 37.144C33.9643 37.144 36.5083 37.832 38.3963 39.208C40.2843 40.584 41.2283 42.6 41.2283 45.256C41.2283 46.472 40.9723 47.528 40.4603 48.424C39.9803 49.288 39.3883 49.992 38.6843 50.536C38.0123 51.08 37.3563 51.448 36.7163 51.64C37.6123 51.928 38.4603 52.376 39.2603 52.984C40.0603 53.592 40.7163 54.376 41.2283 55.336C41.7723 56.296 42.0443 57.464 42.0443 58.84C42.0443 60.76 41.5643 62.36 40.6043 63.64C39.6763 64.92 38.3643 65.896 36.6683 66.568C35.0043 67.24 33.0843 67.576 30.9083 67.576C29.0203 67.576 27.3723 67.384 25.9643 67C24.5883 66.616 23.5163 66.12 22.7483 65.512C21.9803 64.904 21.5963 64.232 21.5963 63.496C21.5963 62.952 21.7403 62.488 22.0283 62.104C22.3163 61.688 22.6843 61.352 23.1323 61.096C23.9003 61.672 24.8603 62.216 26.0123 62.728C27.1963 63.24 28.7323 63.496 30.6203 63.496C32.6043 63.496 34.1883 63.08 35.3723 62.248C36.5563 61.416 37.1483 60.2 37.1483 58.6C37.1483 57.128 36.6043 55.96 35.5163 55.096C34.4603 54.232 32.8763 53.8 30.7643 53.8H26.6363C26.5083 53.608 26.3803 53.336 26.2523 52.984C26.1563 52.632 26.1083 52.248 26.1083 51.832C26.1083 51.384 26.1563 50.984 26.2523 50.632C26.3803 50.28 26.5083 49.992 26.6363 49.768H30.5243C32.6043 49.768 34.0923 49.384 34.9883 48.616C35.8843 47.848 36.3323 46.824 36.3323 45.544C36.3323 44.136 35.8043 43.064 34.7483 42.328C33.6923 41.592 32.2363 41.224 30.3803 41.224C28.9083 41.224 27.6123 41.448 26.4922 41.896C25.3723 42.312 24.4443 42.776 23.7083 43.288C23.3243 43.064 22.9883 42.76 22.7003 42.376C22.4123 41.96 22.2683 41.496 22.2683 40.984C22.2683 40.28 22.6363 39.64 23.3723 39.064C24.1403 38.488 25.1643 38.024 26.4443 37.672C27.7243 37.32 29.1643 37.144 30.7643 37.144ZM65.4581 52.408C65.4581 49.784 65.1541 47.656 64.5461 46.024C63.9381 44.392 63.1221 43.192 62.0981 42.424C61.1061 41.656 59.9701 41.272 58.6901 41.272C57.4421 41.272 56.3061 41.672 55.2821 42.472C54.2581 43.24 53.4421 44.456 52.8341 46.12C52.2581 47.752 51.9701 49.848 51.9701 52.408C51.9701 56.024 52.5621 58.792 53.7461 60.712C54.9301 62.632 56.5781 63.592 58.6901 63.592C60.8341 63.592 62.4981 62.632 63.6821 60.712C64.8661 58.792 65.4581 56.024 65.4581 52.408ZM58.6901 67.672C56.3861 67.672 54.3381 67.112 52.5461 65.992C50.7861 64.872 49.4101 63.192 48.4181 60.952C47.4261 58.68 46.9301 55.832 46.9301 52.408C46.9301 48.824 47.4741 45.928 48.5621 43.72C49.6501 41.48 51.0901 39.832 52.8821 38.776C54.6741 37.72 56.6101 37.192 58.6901 37.192C60.8021 37.192 62.7541 37.736 64.5461 38.824C66.3381 39.88 67.7781 41.528 68.8661 43.768C69.9541 45.976 70.4981 48.856 70.4981 52.408C70.4981 55.8 69.9861 58.632 68.9621 60.904C67.9701 63.144 66.5941 64.84 64.8341 65.992C63.0741 67.112 61.0261 67.672 58.6901 67.672Z" fill="#F26123"/>
<path d="M81.5297 33.075H67.3547C67.2614 32.8883 67.1797 32.6783 67.1097 32.445C67.063 32.2117 67.0397 31.955 67.0397 31.675C67.0397 31.1617 67.168 30.7883 67.4247 30.555C67.7047 30.2983 68.0547 30.17 68.4747 30.17H82.6497C82.7197 30.3333 82.7897 30.5433 82.8597 30.8C82.953 31.0333 82.9997 31.29 82.9997 31.57C82.9997 32.06 82.8714 32.4333 82.6147 32.69C82.358 32.9467 81.9964 33.075 81.5297 33.075ZM76.6997 25.13V39.655C76.513 39.725 76.2914 39.7833 76.0347 39.83C75.778 39.8767 75.498 39.9 75.1947 39.9C74.6114 39.9 74.168 39.7833 73.8647 39.55C73.5847 39.3167 73.4447 38.8733 73.4447 38.22V23.73C73.6314 23.66 73.853 23.6017 74.1097 23.555C74.3897 23.485 74.693 23.45 75.0197 23.45C75.5797 23.45 75.9997 23.5783 76.2797 23.835C76.5597 24.0683 76.6997 24.5 76.6997 25.13Z" fill="#F26123"/>
</g>
<defs>
<clipPath id="clip0_349_967">
<rect width="100" height="100" fill="white"/>
</clipPath>
</defs>
</svg>
