<svg width="17" height="20" fill="none" xmlns="http://www.w3.org/2000/svg"><g clip-path="url(#clip0_495_2010)" fill="#F26123"><path d="M12.577 14l-.77 1.45 3.774-.618c-.762-.382-1.793-.655-3.004-.832zm-9.722.316C1.107 14.777 0 15.532 0 16.654c0 .242.054.48.155.7l6.057-.99-3.357-2.048zM16.858 16l-8.43 1.374 2.223 2.53C14.302 19.575 17 18.41 17 16.653c0-.234-.05-.451-.142-.654zm-9.854 1.611l-5.696.931C2.813 19.475 5.47 20 8.5 20c.184 0 .363-.005.544-.009l-2.04-2.38zM8.5 0C5.48 0 3 2.57 3 5.705c0 1.206.368 2.328.99 3.251l3.565 6.41.016.02c.14.192.278.343.439.453a.848.848 0 00.558.157c.392-.04.633-.329.861-.65l.012-.017 3.936-6.967.002-.005c.093-.173.16-.35.219-.522.265-.676.402-1.4.402-2.13C14 2.57 11.522 0 8.5 0zm0 3.286c1.311 0 2.334 1.062 2.334 2.42 0 1.357-1.023 2.418-2.334 2.418-1.31 0-2.334-1.061-2.334-2.419 0-1.357 1.024-2.42 2.334-2.42z"/></g><defs><clipPath id="clip0_495_2010"><path fill="#fff" d="M0 0h17v20H0z"/></clipPath></defs></svg>.35749C13.4717 8.18399 13.5399 8.00741 13.5978 7.83546C13.8633 7.15921 13.9999 6.43576 14 5.70532C14 2.57024 11.5217 0 8.50037 0ZM8.50037 3.28582C9.81105 3.28582 10.8341 4.34781 10.8341 5.70512C10.8341 7.06282 9.81105 8.12443 8.50037 8.12443C7.18951 8.12443 6.16595 7.06263 6.16595 5.70512C6.16595 4.348 7.18969 3.28582 8.50037 3.28582Z" fill="#F26123"/>
</g>
<defs>
<clipPath id="clip0_495_2010">
<rect width="17" height="20" fill="white"/>
</clipPath>
</defs>
</svg>
