<svg width="19" height="21" xmlns="http://www.w3.org/2000/svg"><path fill-rule="evenodd" clip-rule="evenodd" d="M4.47 9.917c-.296 0-.58.123-.79.341-.21.22-.327.516-.327.825v1.167c0 .31.118.606.327.825.21.219.494.342.79.342h1.118c.297 0 .581-.123.79-.342.21-.219.328-.516.328-.825v-1.167c0-.31-.118-.606-.327-.825a1.094 1.094 0 00-.79-.341H4.47zm0 1.166v1.167h1.118v-1.167H4.471zm3.354 0c0-.31.117-.606.327-.825.21-.218.494-.341.79-.341h1.118c.296 0 .58.123.79.341.21.22.328.516.328.825v1.167c0 .31-.118.606-.328.825-.21.219-.494.342-.79.342H8.94c-.296 0-.58-.123-.79-.342a1.193 1.193 0 01-.327-.825v-1.167zm1.117 0h1.118v1.167H8.94v-1.167zm4.47-1.166c-.296 0-.58.123-.79.341-.209.22-.327.516-.327.825v1.167c0 .31.118.606.328.825.21.219.493.342.79.342h1.117c.297 0 .581-.123.79-.342.21-.219.328-.516.328-.825v-1.167c0-.31-.118-.606-.327-.825a1.094 1.094 0 00-.79-.341h-1.118zm0 1.166v1.167h1.119v-1.167h-1.118zM3.354 15.75c0-.31.118-.606.327-.825.21-.219.494-.342.79-.342h1.118c.297 0 .581.123.79.342.21.219.328.516.328.825v1.167c0 .31-.118.606-.327.825-.21.218-.494.341-.79.341H4.47c-.297 0-.581-.123-.79-.341a1.193 1.193 0 01-.328-.825V15.75zm1.118 1.167V15.75h1.117v1.167H4.471zm4.47-2.334c-.296 0-.58.123-.79.342-.21.219-.327.516-.327.825v1.167c0 .31.117.606.327.825.21.218.494.341.79.341h1.118c.296 0 .58-.123.79-.341.21-.22.328-.516.328-.825V15.75c0-.31-.118-.606-.328-.825a1.095 1.095 0 00-.79-.342H8.94zm1.118 1.167H8.94v1.167h1.118V15.75zm2.235 0c0-.31.118-.606.328-.825.21-.219.493-.342.79-.342h1.117c.297 0 .581.123.79.342.21.219.328.516.328.825v1.167c0 .31-.118.606-.327.825-.21.218-.494.341-.79.341h-1.118c-.297 0-.58-.123-.79-.341a1.193 1.193 0 01-.328-.825V15.75zm1.118 1.167V15.75h1.117v1.167h-1.117z"/><path fill-rule="evenodd" clip-rule="evenodd" d="M5.03 0a.547.547 0 00-.396.17.597.597 0 00-.163.413v1.75H2.235c-.593 0-1.161.246-1.58.684A2.386 2.386 0 000 4.667v14c0 .618.236 1.212.655 1.65.419.437.987.683 1.58.683h14.53c.593 0 1.161-.246 1.58-.683.42-.438.655-1.032.655-1.65v-14a2.38 2.38 0 00-.655-1.65 2.189 2.189 0 00-1.58-.684h-1.118v1.75a.597.597 0 01-.164.413.547.547 0 01-.395.17.547.547 0 01-.395-.17.597.597 0 01-.164-.413v-3.5a.597.597 0 00-.163-.412A.547.547 0 0013.97 0a.547.547 0 00-.396.17.597.597 0 00-.163.413v1.75H6.706v1.75a.597.597 0 01-.164.413.547.547 0 01-.395.17.547.547 0 01-.395-.17.597.597 0 01-.164-.413v-3.5a.597.597 0 00-.163-.412A.547.547 0 005.029 0zM1.117 18.667V8.75h16.764v9.917c0 .31-.117.606-.327.825-.21.218-.494.341-.79.341H2.235c-.296 0-.58-.123-.79-.341a1.193 1.193 0 01-.327-.825z"/></svg>14.925C12.8312 14.7063 13.1154 14.5833 13.4119 14.5833H14.5295C14.8259 14.5833 15.1102 14.7063 15.3198 14.925C15.5294 15.1438 15.6471 15.4406 15.6471 15.75V16.9167C15.6471 17.2261 15.5294 17.5228 15.3198 17.7416C15.1102 17.9604 14.8259 18.0833 14.5295 18.0833H13.4119C13.1154 18.0833 12.8312 17.9604 12.6216 17.7416C12.412 17.5228 12.2942 17.2261 12.2942 16.9167V15.75ZM13.4119 16.9167V15.75H14.5295V16.9167H13.4119Z" />
<path fill-rule="evenodd" clip-rule="evenodd" d="M5.02941 0C4.8812 0 4.73906 0.0614583 4.63426 0.170854C4.52946 0.280251 4.47059 0.428624 4.47059 0.583333V2.33333H2.23529C1.64246 2.33333 1.0739 2.57917 0.654702 3.01675C0.235503 3.45434 0 4.04783 0 4.66667V18.6667C0 19.2855 0.235503 19.879 0.654702 20.3166C1.0739 20.7542 1.64246 21 2.23529 21H16.7647C17.3575 21 17.9261 20.7542 18.3453 20.3166C18.7645 19.879 19 19.2855 19 18.6667V4.66667C19 4.04783 18.7645 3.45434 18.3453 3.01675C17.9261 2.57917 17.3575 2.33333 16.7647 2.33333H15.6471V4.08333C15.6471 4.23804 15.5882 4.38642 15.4834 4.49581C15.3786 4.60521 15.2364 4.66667 15.0882 4.66667C14.94 4.66667 14.7979 4.60521 14.6931 4.49581C14.5883 4.38642 14.5294 4.23804 14.5294 4.08333V0.583333C14.5294 0.428624 14.4705 0.280251 14.3657 0.170854C14.2609 0.0614583 14.1188 0 13.9706 0C13.8224 0 13.6802 0.0614583 13.5754 0.170854C13.4706 0.280251 13.4118 0.428624 13.4118 0.583333V2.33333H6.70588V4.08333C6.70588 4.23804 6.64701 4.38642 6.54221 4.49581C6.43741 4.60521 6.29527 4.66667 6.14706 4.66667C5.99885 4.66667 5.85671 4.60521 5.75191 4.49581C5.64711 4.38642 5.58824 4.23804 5.58824 4.08333V0.583333C5.58824 0.428624 5.52936 0.280251 5.42456 0.170854C5.31976 0.0614583 5.17762 0 5.02941 0ZM1.11765 18.6667V8.75H17.8824V18.6667C17.8824 18.9761 17.7646 19.2728 17.555 19.4916C17.3454 19.7104 17.0611 19.8333 16.7647 19.8333H2.23529C1.93888 19.8333 1.6546 19.7104 1.445 19.4916C1.2354 19.2728 1.11765 18.9761 1.11765 18.6667Z" />
</svg>
