<svg width="11" height="19" viewBox="0 0 11 19" xmlns="http://www.w3.org/2000/svg">
<g id="back" clip-path="url(#clip0_45_2890)">
<path id="Vector" d="M2.17972 18.624L10.7212 10.2018C10.8226 10.1016 10.8945 9.99296 10.9371 9.87599C10.9797 9.75902 11.0007 9.63369 11 9.5C11 9.36631 10.979 9.24098 10.9371 9.12401C10.8952 9.00704 10.8232 8.89842 10.7212 8.79815L2.17972 0.350923C1.94316 0.116974 1.64746 0 1.29262 0C0.937786 0 0.633639 0.12533 0.380184 0.375989C0.126728 0.626649 0 0.919085 0 1.2533C0 1.58751 0.126728 1.87995 0.380184 2.13061L7.83179 9.5L0.380184 16.8694C0.143625 17.1033 0.0253448 17.3918 0.0253448 17.7347C0.0253448 18.0776 0.152073 18.374 0.405529 18.624C0.658985 18.8747 0.954683 19 1.29262 19C1.63057 19 1.92626 18.8747 2.17972 18.624Z" />
</g>
<defs>
<clipPath id="clip0_45_2890">
<rect width="11" height="19" fill="white" transform="matrix(-1 0 0 1 11 0)"/>
</clipPath>
</defs>
</svg>
