<svg width="48" height="48" viewBox="0 0 48 48" fill="none" xmlns="http://www.w3.org/2000/svg">
<g clip-path="url(#clip0_1046_394)">
<path d="M24 0C10.745 0 0 10.745 0 24C0 37.255 10.745 48 24 48C37.255 48 48 37.255 48 24C48 10.745 37.255 0 24 0Z" fill="#0077FF"/>
<path d="M33.23 27.0774C33.23 27.0774 35.3525 29.1724 35.875 30.1449C35.89 30.1649 35.8975 30.1849 35.9025 30.1949C36.115 30.5524 36.165 30.8299 36.06 31.0374C35.885 31.3824 35.285 31.5524 35.08 31.5674H31.33C31.07 31.5674 30.525 31.4999 29.865 31.0449C29.3575 30.6899 28.8575 30.1074 28.37 29.5399C27.6425 28.6949 27.0125 27.9649 26.3775 27.9649C26.2969 27.9648 26.2167 27.9775 26.14 28.0024C25.66 28.1574 25.045 28.8424 25.045 30.6674C25.045 31.2374 24.595 31.5649 24.2775 31.5649H22.56C21.975 31.5649 18.9275 31.3599 16.2275 28.5124C12.9225 25.0249 9.94754 18.0299 9.92254 17.9649C9.73504 17.5124 10.1225 17.2699 10.545 17.2699H14.3325C14.8375 17.2699 15.0025 17.5774 15.1175 17.8499C15.2525 18.1674 15.7475 19.4299 16.56 20.8499C17.8775 23.1649 18.685 24.1049 19.3325 24.1049C19.454 24.1035 19.5732 24.0726 19.68 24.0149C20.525 23.5449 20.3675 20.5324 20.33 19.9074C20.33 19.7899 20.3275 18.5599 19.895 17.9699C19.585 17.5424 19.0575 17.3799 18.7375 17.3199C18.8671 17.1412 19.0377 16.9963 19.235 16.8974C19.815 16.6074 20.86 16.5649 21.8975 16.5649H22.475C23.6 16.5799 23.89 16.6524 24.2975 16.7549C25.1225 16.9524 25.14 17.4849 25.0675 19.3074C25.045 19.8249 25.0225 20.4099 25.0225 21.0999C25.0225 21.2499 25.015 21.4099 25.015 21.5799C24.99 22.5074 24.96 23.5599 25.615 23.9924C25.7005 24.046 25.7992 24.0746 25.9 24.0749C26.1275 24.0749 26.8125 24.0749 28.6675 20.8924C29.2396 19.8681 29.7368 18.8036 30.155 17.7074C30.1925 17.6424 30.3025 17.4424 30.4325 17.3649C30.5285 17.316 30.6349 17.2912 30.7425 17.2924H35.195C35.68 17.2924 36.0125 17.3649 36.075 17.5524C36.185 17.8499 36.055 18.7574 34.0225 21.5099L33.115 22.7074C31.2725 25.1224 31.2725 25.2449 33.23 27.0774Z" fill="white"/>
</g>
<defs>
<clipPath id="clip0_1046_394">
<rect width="48" height="48" fill="white"/>
</clipPath>
</defs>
</svg>
