<svg width="20" height="20" fill="none" xmlns="http://www.w3.org/2000/svg"><g clip-path="url(#clip0_45_2801)"><path d="M19.248 13.972L14.33 11.77a1.25 1.25 0 00-1.225.133l-2.583 2.202a.406.406 0 01-.385.022c-1.692-.817-3.443-2.554-4.26-4.226a.406.406 0 01.019-.384l2.208-2.626.03-.04a1.25 1.25 0 00.104-1.183L6.03.759a1.25 1.25 0 00-1.3-.75A5.443 5.443 0 000 5.416C0 13.458 6.542 20 14.584 20a5.443 5.443 0 005.407-4.731 1.25 1.25 0 00-.743-1.297zM12.5 7.083V2.916a.417.417 0 01.834 0v3.16l4.288-4.288a.417.417 0 01.59.59l-4.289 4.288h3.16a.417.417 0 110 .834h-4.166a.417.417 0 01-.417-.417z" fill="#F26123"/></g><defs><clipPath id="clip0_45_2801"><path fill="#fff" d="M0 0h20v20H0z"/></clipPath></defs></svg>24 6.06684 8.31874 5.85898 8.23658 5.66858L6.03134 0.758105C5.92488 0.5094 5.74061 0.301946 5.5062 0.166896C5.27178 0.0318457 4.99988 -0.0235112 4.73133 0.00913822C3.42044 0.181974 2.2173 0.826088 1.34662 1.82118C0.475943 2.81626 -0.00272915 4.09427 1.17056e-05 5.41649C1.17056e-05 13.4582 6.54177 20 14.5835 20C15.9058 20.0027 17.1838 19.5241 18.1789 18.6534C19.174 17.7827 19.8181 16.5796 19.9909 15.2687C20.0233 15.0014 19.9685 14.7307 19.8347 14.497C19.7009 14.2633 19.4952 14.0791 19.2482 13.9718ZM12.5002 7.08318V2.91646C12.5002 2.80595 12.5441 2.69997 12.6222 2.62183C12.7004 2.54369 12.8063 2.49979 12.9169 2.49979C13.0274 2.49979 13.1333 2.54369 13.2115 2.62183C13.2896 2.69997 13.3335 2.80595 13.3335 2.91646V6.07691L17.6221 1.78832C17.6608 1.74961 17.7068 1.7189 17.7574 1.69795C17.808 1.677 17.8622 1.66622 17.9169 1.66622C17.9717 1.66622 18.0259 1.677 18.0765 1.69795C18.127 1.7189 18.173 1.74961 18.2117 1.78832C18.2504 1.82704 18.2811 1.873 18.3021 1.92358C18.323 1.97416 18.3338 2.02837 18.3338 2.08312C18.3338 2.13787 18.323 2.19208 18.3021 2.24266C18.2811 2.29324 18.2504 2.3392 18.2117 2.37792L13.9231 6.6665H17.0836C17.1941 6.6665 17.3001 6.7104 17.3782 6.78855C17.4564 6.86669 17.5003 6.97267 17.5003 7.08318C17.5003 7.19368 17.4564 7.29967 17.3782 7.37781C17.3001 7.45595 17.1941 7.49985 17.0836 7.49985H12.9169C12.8063 7.49985 12.7004 7.45595 12.6222 7.37781C12.5441 7.29967 12.5002 7.19368 12.5002 7.08318Z" fill="#F26123"/>
</g>
<defs>
<clipPath id="clip0_45_2801">
<rect width="20" height="20" fill="white"/>
</clipPath>
</defs>
</svg>
