<svg width="48" height="48" fill="none" xmlns="http://www.w3.org/2000/svg"><g clip-path="url(#clip0_1043_370)"><path d="M24 0C10.745 0 0 10.745 0 24s10.745 24 24 24 24-10.745 24-24S37.255 0 24 0z" fill="#58595B"/><path d="M26.174 24.752h-8.549V21.18h8.55c.498 0 .846.092 1.02.252.174.16.282.458.282.893v1.283c0 .458-.108.756-.282.916-.174.16-.522.228-1.02.228zm.587-6.94H14v15.277h3.625v-4.97h6.682l3.17 4.97h4.06l-3.495-4.994c1.288-.201 1.867-.618 2.344-1.306.477-.687.716-1.786.716-3.252V22.39c0-.87-.087-1.557-.239-2.084a3.522 3.522 0 00-.781-1.396 3.503 3.503 0 00-1.346-.848c-.522-.16-1.173-.251-1.976-.251z" fill="#fff"/><path d="M34.323 17.81c1.538 0 2.785-1.3 2.785-2.905 0-1.604-1.247-2.905-2.785-2.905s-2.785 1.3-2.785 2.905c0 1.604 1.247 2.905 2.785 2.905z" fill="#ED143B"/></g><defs><clipPath id="clip0_1043_370"><path fill="#fff" d="M0 0h48v48H0z"/></clipPath></defs></svg>