<svg width="48" height="48" viewBox="0 0 48 48" fill="none" xmlns="http://www.w3.org/2000/svg">
<g clip-path="url(#clip0_1026_269)">
<path d="M24 0C10.745 0 0 10.745 0 24C0 37.255 10.745 48 24 48C37.255 48 48 37.255 48 24C48 10.745 37.255 0 24 0Z" fill="#58595B"/>
<path d="M26.1741 24.752H17.6254V21.1796H26.1741C26.6734 21.1796 27.0206 21.2716 27.1949 21.4321C27.3691 21.5926 27.4771 21.8903 27.4771 22.3252V23.6079C27.4771 24.0661 27.3691 24.3638 27.1949 24.5243C27.0206 24.6848 26.6734 24.752 26.1741 24.752ZM26.7605 17.8117H14V33.089H17.6254V28.1187H24.3067L27.4771 33.089H31.5368L28.0415 28.0954C29.3302 27.8936 29.9087 27.4767 30.386 26.7893C30.8632 26.102 31.1025 25.0031 31.1025 23.5366V22.391C31.1025 21.5212 31.0153 20.8339 30.8632 20.3071C30.711 19.7803 30.451 19.3221 30.0818 18.9105C29.6916 18.5209 29.2572 18.2466 28.7357 18.0627C28.2144 17.9022 27.5629 17.8117 26.7605 17.8117Z" fill="white"/>
<path d="M34.3231 17.8102C35.8614 17.8102 37.1083 16.5095 37.1083 14.9051C37.1083 13.3007 35.8614 12 34.3231 12C32.7848 12 31.5378 13.3007 31.5378 14.9051C31.5378 16.5095 32.7848 17.8102 34.3231 17.8102Z" fill="white"/>
</g>
<defs>
<clipPath id="clip0_1026_269">
<rect width="48" height="48" fill="white"/>
</clipPath>
</defs>
</svg>
