<svg width="18" height="16" fill="none" xmlns="http://www.w3.org/2000/svg"><g clip-path="url(#clip0_495_2015)"><path d="M17.395 10.877l-5.41-9.01C11.27.676 10.19 0 9 0S6.73.677 6.015 1.857l-5.41 9.02C.2 11.545 0 12.24 0 12.9c0 .521.128 1.034.385 1.482C.97 15.405 2.105 16 3.507 16h10.986c1.4 0 2.536-.595 3.122-1.62.257-.448.385-.932.385-1.445.009-.677-.193-1.381-.605-2.058zM9 4.52c.778 0 1.419.64 1.419 1.418a1.42 1.42 0 01-1.42 1.418c-.777 0-1.418-.64-1.418-1.418A1.412 1.412 0 019 4.52zm1.547 7.74c-.027.036-.732.841-1.895.841h-.137c-.467-.027-.852-.229-1.08-.576-.285-.43-.33-1.016-.11-1.665L7.7 9.743c.21-.622.009-.723-.1-.778l-.13-.018c-.228 0-.548.137-.65.192a.23.23 0 01-.283-.064.234.234 0 01.01-.293c.027-.036.796-.905 2.032-.832.467.027.851.228 1.08.576.293.43.33 1.015.11 1.674l-.375 1.116c-.211.622-.01.723.1.778l.128.018c.23 0 .55-.137.65-.183.101-.055.211-.027.284.064.064.064.064.183-.009.265z" fill="#fff"/></g><defs><clipPath id="clip0_495_2015"><path fill="#fff" d="M0 0h18v16H0z"/></clipPath></defs></svg>8.94683 6.92155 9.08405 6.82084 9.13894C6.72929 9.18468 6.61027 9.16638 6.53702 9.0749C6.47293 8.98342 6.47293 8.86449 6.54618 8.78216C6.57364 8.74557 7.34271 7.8765 8.5787 7.94969C9.04563 7.97713 9.43016 8.17839 9.65905 8.52601C9.95202 8.95597 9.98864 9.54145 9.76891 10.2001L9.39354 11.3162C9.18296 11.9383 9.38438 12.0389 9.49425 12.0938L9.62242 12.1121C9.85131 12.1121 10.1718 11.9748 10.2725 11.9291C10.3732 11.8742 10.483 11.9017 10.5563 11.9931C10.6204 12.0572 10.6204 12.1761 10.5471 12.2584Z" fill="white"/>
</g>
<defs>
<clipPath id="clip0_495_2015">
<rect width="18" height="16" fill="white"/>
</clipPath>
</defs>
</svg>
