<svg width="16" height="15" viewBox="0 0 16 15" fill="none" xmlns="http://www.w3.org/2000/svg">
<g clip-path="url(#clip0_787_227)">
<path d="M7.5 0C3.35787 0 0 3.35787 0 7.5C0 11.6421 3.35787 15 7.5 15C11.6421 15 15 11.6421 15 7.5C15 6.62341 14.8496 5.78195 14.5732 5L13.1761 6C13.3022 6.47884 13.3695 6.98159 13.3695 7.5C13.3695 10.7413 10.7421 13.3695 7.5 13.3695C4.25787 13.3695 1.63055 10.7413 1.63055 7.5C1.63056 4.2587 4.25787 1.62964 7.5 1.62964C8.39417 1.62964 9.24158 1.82962 10 2.18726L11.2442 1C10.1423 0.363945 8.86366 0 7.5 0Z" fill="#F26123"/>
<path d="M15.0699 0.634855C14.6853 0.25033 14.0619 0.25035 13.6774 0.634899L7.02667 7.28644L6.30799 6.56775C5.9262 6.18596 5.30722 6.18586 4.92531 6.56752C4.54321 6.94936 4.54311 7.56869 4.92508 7.95065L5.64331 8.66889L6.32849 9.35406C6.7191 9.74468 7.35244 9.74457 7.74293 9.35383L8.41829 8.67804L15.0698 2.02733C15.4544 1.64282 15.4544 1.01938 15.0699 0.634855Z" fill="#F26123"/>
</g>
<defs>
<clipPath id="clip0_787_227">
<rect width="16" height="15" fill="white"/>
</clipPath>
</defs>
</svg>
