<svg width="48" height="48" fill="none" xmlns="http://www.w3.org/2000/svg"><g clip-path="url(#clip0_1026_283)"><path d="M24 0C10.745 0 0 10.745 0 24s10.745 24 24 24 24-10.745 24-24S37.255 0 24 0z" fill="#58595B"/><path d="M33.23 27.077s2.123 2.095 2.645 3.068c.015.02.023.04.028.05.212.357.262.635.157.842-.175.345-.775.515-.98.53h-3.75c-.26 0-.805-.067-1.465-.522-.507-.355-1.007-.938-1.495-1.505-.728-.845-1.358-1.575-1.992-1.575a.769.769 0 00-.238.037c-.48.155-1.095.84-1.095 2.665 0 .57-.45.898-.768.898H22.56c-.585 0-3.633-.205-6.332-3.053-3.306-3.487-6.28-10.482-6.305-10.547-.188-.453.2-.695.622-.695h3.787c.505 0 .67.307.785.58.135.317.63 1.58 1.443 3 1.318 2.315 2.125 3.255 2.773 3.255a.75.75 0 00.347-.09c.845-.47.688-3.483.65-4.108 0-.117-.002-1.347-.435-1.937-.31-.428-.837-.59-1.157-.65.13-.179.3-.324.497-.423.58-.29 1.625-.332 2.663-.332h.577c1.125.015 1.415.087 1.822.19.825.197.843.73.77 2.552a39.754 39.754 0 00-.044 1.793c0 .15-.008.31-.008.48-.025.927-.055 1.98.6 2.412a.54.54 0 00.285.083c.228 0 .913 0 2.768-3.183a24.28 24.28 0 001.487-3.185c.037-.065.147-.265.277-.342a.667.667 0 01.31-.073h4.453c.485 0 .818.073.88.26.11.298-.02 1.205-2.053 3.958l-.907 1.197c-1.843 2.415-1.843 2.538.115 4.37z" fill="#fff"/></g><defs><clipPath id="clip0_1026_283"><path fill="#fff" d="M0 0h48v48H0z"/></clipPath></defs></svg>5799 23.89 16.6524 24.2975 16.7549C25.1225 16.9524 25.14 17.4849 25.0675 19.3074C25.045 19.8249 25.0225 20.4099 25.0225 21.0999C25.0225 21.2499 25.015 21.4099 25.015 21.5799C24.99 22.5074 24.96 23.5599 25.615 23.9924C25.7005 24.046 25.7992 24.0746 25.9 24.0749C26.1275 24.0749 26.8125 24.0749 28.6675 20.8924C29.2396 19.8681 29.7368 18.8036 30.155 17.7074C30.1925 17.6424 30.3025 17.4424 30.4325 17.3649C30.5285 17.316 30.6349 17.2912 30.7425 17.2924H35.195C35.68 17.2924 36.0125 17.3649 36.075 17.5524C36.185 17.8499 36.055 18.7574 34.0225 21.5099L33.115 22.7074C31.2725 25.1224 31.2725 25.2449 33.23 27.0774Z" fill="white"/>
</g>
<defs>
<clipPath id="clip0_1026_283">
<rect width="48" height="48" fill="white"/>
</clipPath>
</defs>
</svg>
