<svg width="21" height="20" fill="none" xmlns="http://www.w3.org/2000/svg"><g clip-path="url(#clip0_45_2794)"><path d="M20.815 11l-1.176 1.177-2.41-2.412 1.175-1.177a.647.647 0 01.905 0l1.506 1.506a.647.647 0 010 .906zM9.408 17.576l7.126-7.129 2.411 2.412L11.83 20H9.408v-2.424zm0-5.811C4.21 11.765 0 13.87 0 16.47v2.352h7.056V16.6l4.704-4.706a19.569 19.569 0 00-2.352-.13zM9.408 0a4.703 4.703 0 00-4.704 4.706 4.707 4.707 0 004.704 4.706 4.703 4.703 0 004.704-4.706A4.707 4.707 0 009.408 0z" fill="#F26123"/></g><defs><clipPath id="clip0_45_2794"><path fill="#fff" d="M0 0h21v20H0z"/></clipPath></defs></svg>38 0.495797 6.08165 1.37832C5.19949 2.26084 4.70391 3.4578 4.70391 4.70588C4.70391 5.95396 5.19949 7.15092 6.08165 8.03344C6.9638 8.91597 8.16026 9.41177 9.40781 9.41177C10.6554 9.41177 11.8518 8.91597 12.734 8.03344C13.6161 7.15092 14.1117 5.95396 14.1117 4.70588C14.1117 3.4578 13.6161 2.26084 12.734 1.37832C11.8518 0.495797 10.6554 0 9.40781 0Z" fill="#F26123"/>
</g>
<defs>
<clipPath id="clip0_45_2794">
<rect width="21" height="20" fill="white"/>
</clipPath>
</defs>
</svg>
