<svg width="11" height="19" fill="none" xmlns="http://www.w3.org/2000/svg"><g clip-path="url(#clip0_45_2890)"><path d="M2.18 18.624l8.541-8.422a.884.884 0 00.216-.326c.043-.117.064-.242.063-.376 0-.134-.021-.259-.063-.376a.869.869 0 00-.216-.326L2.18.351A1.21 1.21 0 001.293 0C.938 0 .633.125.38.376.127.626 0 .919 0 1.253c0 .335.127.627.38.878L7.832 9.5.38 16.87a1.17 1.17 0 00-.355.865c0 .343.127.639.38.889.254.25.55.376.888.376.338 0 .633-.125.887-.376z" fill="#6E747A"/></g><defs><clipPath id="clip0_45_2890"><path fill="#fff" transform="matrix(-1 0 0 1 11 0)" d="M0 0h11v19H0z"/></clipPath></defs></svg> 17.3918 0.0253448 17.7347C0.0253448 18.0776 0.152073 18.374 0.405529 18.624C0.658985 18.8747 0.954683 19 1.29262 19C1.63057 19 1.92626 18.8747 2.17972 18.624Z" fill="#6E747A"/>
</g>
<defs>
<clipPath id="clip0_45_2890">
<rect width="11" height="19" fill="white" transform="matrix(-1 0 0 1 11 0)"/>
</clipPath>
</defs>
</svg>
