<svg width="48" height="48" fill="none" xmlns="http://www.w3.org/2000/svg"><g clip-path="url(#clip0_1044_375)"><path d="M24 0A24.007 24.007 0 000 24a24.007 24.007 0 0024 24 24.007 24.007 0 0024-24A24.007 24.007 0 0024 0z" fill="#58595B"/><path d="M24.257 48c.326-10.629.6-15.48 4.372-19.371C32.52 24.857 37.37 24.6 48 24.257v-.514c-10.629-.343-15.48-.6-19.371-4.372C24.857 15.48 24.583 10.63 24.257 0h-.514c-.326 10.629-.6 15.48-4.372 19.371C15.48 23.143 10.63 23.4 0 23.743v.514c10.629.326 15.48.6 19.371 4.372C23.143 32.52 23.4 37.37 23.743 48h.514z" fill="#CCCDCF"/></g><defs><clipPath id="clip0_1044_375"><path fill="#fff" d="M0 0h48v48H0z"/></clipPath></defs></svg>23.7429C23.4171 10.6287 23.1429 15.48 19.3713 19.3713C15.48 23.1429 10.6287 23.4 0 23.7429V24.2571C10.6287 24.5829 15.48 24.8571 19.3713 28.6287C23.1429 32.52 23.4 37.3713 23.7429 48H24.2571Z" fill="#CCCDCF"/>
</g>
<defs>
<clipPath id="clip0_1044_375">
<rect width="48" height="48" fill="white"/>
</clipPath>
</defs>
</svg>
