<svg width="150" height="40" viewBox="0 0 150 40" fill="none" xmlns="http://www.w3.org/2000/svg">
<g clip-path="url(#clip0_1_29)">
<path d="M5.2095 33.6504C5.25937 33.6785 5.29537 33.7175 5.31862 33.7633C5.3415 33.8109 5.337 33.866 5.3055 33.9301L4.88175 34.6513C4.8375 34.7109 4.794 34.7435 4.74975 34.7521C4.70625 34.7611 4.65412 34.7465 4.59225 34.709C4.41187 34.5766 4.21537 34.4754 4.00425 34.4026C3.79275 34.3299 3.56887 34.2928 3.33337 34.2928C3.03487 34.2928 2.763 34.3494 2.51475 34.4611C2.26725 34.574 2.05237 34.7259 1.87162 34.9186C1.69125 35.1106 1.55062 35.3364 1.44937 35.597C1.34925 35.8569 1.29862 36.1348 1.29862 36.4321C1.29862 36.7265 1.34925 37.0033 1.44937 37.2605C1.55062 37.5189 1.69125 37.745 1.87162 37.937C2.05237 38.1286 2.26725 38.2798 2.51475 38.3915C2.763 38.5033 3.03487 38.5584 3.33337 38.5584C3.56887 38.5584 3.795 38.5213 4.011 38.4485C4.22625 38.375 4.4235 38.2741 4.60087 38.1418C4.665 38.1046 4.719 38.0881 4.761 38.0945C4.80337 38.1001 4.84687 38.1316 4.88962 38.1913L5.3235 38.921C5.355 38.9851 5.3595 39.0384 5.33662 39.083C5.31262 39.1261 5.27625 39.1633 5.22637 39.1914C4.95562 39.3759 4.66012 39.5184 4.341 39.6181C4.02112 39.7194 3.6885 39.77 3.34125 39.77C3.03225 39.77 2.73525 39.7299 2.45175 39.6508C2.16637 39.5724 1.90087 39.4606 1.65337 39.3151C1.40587 39.1689 1.18012 38.9956 0.977623 38.7916C0.774748 38.5891 0.600373 38.3649 0.454873 38.1178C0.308998 37.871 0.196498 37.6063 0.118123 37.3228C0.0389981 37.037 -1.90735e-06 36.7415 -1.90735e-06 36.4321C-1.90735e-06 36.1228 0.0389981 35.8254 0.118123 35.5415C0.196498 35.258 0.308998 34.9903 0.454873 34.7416C0.600373 34.4919 0.774748 34.2658 0.977623 34.0606C1.18012 33.8574 1.40587 33.6834 1.65337 33.539C1.90087 33.395 2.16637 33.2818 2.45175 33.2015C2.73525 33.1213 3.03225 33.0811 3.34125 33.0811C3.6885 33.0811 4.01775 33.1306 4.33012 33.2285C4.64212 33.3264 4.935 33.4663 5.2095 33.6504Z" fill="#5B5B5B"/>
<path d="M8.13525 33.3695C8.13525 33.3174 8.15737 33.2728 8.20162 33.2345C8.24512 33.1974 8.29537 33.1779 8.35462 33.1779H12.8194C12.8722 33.1779 12.9214 33.1944 12.9667 33.2251C13.0114 33.2581 13.0372 33.3054 13.0436 33.3695V34.1394C13.0436 34.2035 13.0241 34.2586 12.9862 34.3044C12.9484 34.349 12.8929 34.3715 12.8194 34.3715H11.2316V39.4501C11.2316 39.4741 11.2267 39.4974 11.2151 39.5214C11.2031 39.5469 11.1889 39.5709 11.1712 39.5941C11.154 39.6185 11.1326 39.6361 11.1079 39.6511C11.0824 39.6658 11.0572 39.6733 11.0314 39.6733H10.1565C10.1355 39.6733 10.113 39.6669 10.0882 39.6538C10.0631 39.6403 10.0402 39.6241 10.0185 39.6035C9.99675 39.5821 9.97837 39.5589 9.96412 39.53C9.94875 39.5038 9.94237 39.4768 9.94237 39.4501V34.3715H8.35462C8.29537 34.3715 8.24512 34.3509 8.20162 34.3108C8.15737 34.2706 8.13525 34.2129 8.13525 34.1394V33.3695Z" fill="#5B5B5B"/>
<path d="M19.9627 35.2636C19.9627 35.1444 19.9399 35.027 19.8945 34.9141C19.8499 34.8016 19.7857 34.6989 19.7047 34.6111C19.623 34.5219 19.5262 34.4503 19.4156 34.3951C19.3046 34.3419 19.182 34.3149 19.0485 34.3149H17.8365V36.2094H19.0485C19.179 36.2094 19.3009 36.1824 19.4134 36.1303C19.5255 36.0781 19.623 36.0084 19.7047 35.9206C19.7857 35.8329 19.8499 35.7316 19.8945 35.6188C19.9399 35.504 19.9627 35.3866 19.9627 35.2636ZM16.542 33.4276C16.542 33.3515 16.5626 33.2908 16.6031 33.2461C16.6444 33.2 16.704 33.1775 16.7824 33.1775H19.2319C19.5262 33.1775 19.7981 33.236 20.0475 33.3504C20.2972 33.4663 20.5121 33.6189 20.6925 33.8128C20.874 34.0044 21.0154 34.2275 21.117 34.4818C21.2186 34.7345 21.2704 34.9989 21.2704 35.2726C21.2704 35.5415 21.2205 35.8003 21.1215 36.0485C21.0229 36.2986 20.8826 36.5199 20.7037 36.7119C20.5245 36.9046 20.3115 37.0584 20.0651 37.1739C19.8184 37.2886 19.5502 37.3464 19.2581 37.3464H17.8365V39.4411C17.8365 39.5956 17.7581 39.6729 17.6002 39.6729H16.7779C16.7021 39.6729 16.6444 39.6534 16.6031 39.6136C16.5626 39.575 16.542 39.5173 16.542 39.4411V33.4276Z" fill="#5B5B5B"/>
<path d="M26.1866 37.3243H28.0414L27.1181 35.063L26.1866 37.3243ZM26.6111 33.3223C26.6314 33.2821 26.6587 33.2476 26.6936 33.2195C26.7285 33.1914 26.7859 33.1779 26.865 33.1779H27.372C27.4365 33.1779 27.4852 33.1914 27.5201 33.2195C27.5561 33.2476 27.5831 33.2821 27.6037 33.3223L30.2059 39.4723V39.4981C30.2059 39.542 30.1916 39.5821 30.1631 39.6185C30.1331 39.6556 30.0679 39.6733 29.9659 39.6733H29.1259C29.0704 39.6733 29.0284 39.6643 29.001 39.6451C28.9736 39.6256 28.9511 39.5896 28.9335 39.5383L28.5007 38.5179H25.7272L25.2941 39.5383C25.2679 39.6286 25.2135 39.6733 25.1329 39.6733H24.2224C24.1496 39.6733 24.0994 39.6598 24.0716 39.6316C24.0439 39.6035 24.03 39.5634 24.03 39.5113C24.03 39.5056 24.249 38.9878 24.6859 37.9588C25.1235 36.9286 25.7651 35.3844 26.6111 33.3223Z" fill="#5B5B5B"/>
<path d="M38.4727 39.3759C38.4971 39.41 38.5147 39.4426 38.5279 39.4726C38.5406 39.5008 38.5485 39.5289 38.5519 39.5555C38.5519 39.6346 38.505 39.6729 38.412 39.6729H37.3747C37.317 39.6729 37.2641 39.6571 37.2172 39.6226C37.1715 39.59 37.1321 39.5469 37.0999 39.4933C36.8726 39.1588 36.6435 38.8213 36.4129 38.4841C36.1826 38.1448 35.9554 37.8091 35.7307 37.4728C35.5035 37.8148 35.277 38.1504 35.0527 38.4841C34.8281 38.8153 34.6024 39.1531 34.3751 39.4933C34.3399 39.5435 34.2982 39.5855 34.2502 39.6208C34.2015 39.6553 34.1505 39.6729 34.0942 39.6729H33.0581C32.9591 39.6729 32.91 39.6346 32.91 39.5555C32.91 39.5289 32.9231 39.4914 32.9505 39.4456C32.979 39.3999 33.0045 39.3564 33.0274 39.3196L35.0044 36.392C34.8675 36.1888 34.728 35.9803 34.587 35.7688C34.4456 35.558 34.2952 35.3334 34.1362 35.0986C33.9769 34.862 33.8066 34.6096 33.6247 34.3419C33.4417 34.0726 33.2404 33.7764 33.0191 33.4531C32.9752 33.386 32.9527 33.3328 32.9527 33.2908C32.9527 33.2473 32.9715 33.218 33.0079 33.2015C33.0442 33.1854 33.0919 33.1775 33.1496 33.1775H34.1291C34.2139 33.1775 34.278 33.2004 34.3222 33.2461C34.3657 33.2908 34.4156 33.3545 34.4707 33.4363L35.7307 35.3083L37.0425 33.374C37.1272 33.2521 37.2337 33.1865 37.362 33.1775H38.2935C38.3606 33.1775 38.4131 33.1854 38.4517 33.2004C38.4896 33.2146 38.508 33.2461 38.508 33.2956C38.505 33.3133 38.4997 33.3354 38.4907 33.362C38.4821 33.3875 38.4682 33.4156 38.4517 33.4438L36.4605 36.392L38.4727 39.3759Z" fill="#5B5B5B"/>
<path d="M42.261 36.4321C42.261 36.7265 42.3112 37.0033 42.4117 37.2605C42.513 37.5189 42.6532 37.745 42.8336 37.937C43.0147 38.1283 43.2296 38.2801 43.4771 38.3919C43.7257 38.5029 43.9972 38.5584 44.2957 38.5584C44.5901 38.5584 44.862 38.5029 45.1114 38.3919C45.36 38.2801 45.576 38.1283 45.7564 37.937C45.9367 37.745 46.0781 37.5189 46.1809 37.2605C46.2825 37.0033 46.3335 36.7265 46.3335 36.4321C46.3335 36.1348 46.2825 35.8569 46.1809 35.5963C46.0781 35.3364 45.9367 35.1106 45.7564 34.919C45.576 34.7259 45.36 34.574 45.1114 34.4611C44.862 34.3494 44.5901 34.2928 44.2957 34.2928C43.9972 34.2928 43.7257 34.3494 43.4771 34.4611C43.2296 34.574 43.0147 34.7259 42.8336 34.919C42.6532 35.1106 42.513 35.3364 42.4117 35.5963C42.3112 35.8569 42.261 36.1348 42.261 36.4321ZM40.9624 36.4321C40.9624 36.1228 41.0021 35.8254 41.0805 35.5415C41.1596 35.258 41.2717 34.9899 41.4172 34.742C41.5627 34.4923 41.7371 34.2658 41.9396 34.0606C42.1429 33.8574 42.3682 33.6834 42.6154 33.539C42.8629 33.3946 43.1295 33.2818 43.4141 33.2015C43.6976 33.1213 43.9942 33.0811 44.3036 33.0811C44.61 33.0811 44.9055 33.1213 45.192 33.2015C45.4774 33.2818 45.7444 33.3946 45.993 33.539C46.2401 33.6834 46.4659 33.8574 46.6702 34.0606C46.8742 34.2658 47.049 34.4923 47.193 34.742C47.3374 34.9899 47.4495 35.258 47.5297 35.5415C47.61 35.8254 47.6501 36.1228 47.6501 36.4321C47.6501 36.7415 47.61 37.037 47.5297 37.3228C47.4495 37.6063 47.3374 37.871 47.193 38.1178C47.049 38.3649 46.8742 38.5895 46.6702 38.7916C46.4659 38.9956 46.2401 39.1689 45.993 39.3151C45.7444 39.4606 45.4774 39.5724 45.192 39.6508C44.9055 39.7299 44.61 39.77 44.3036 39.77C43.9942 39.77 43.6976 39.7299 43.4141 39.6508C43.1295 39.5724 42.8629 39.4606 42.6154 39.3151C42.3682 39.1689 42.1429 38.9956 41.9396 38.7916C41.7371 38.5895 41.5627 38.3649 41.4172 38.1178C41.2717 37.871 41.1596 37.6063 41.0805 37.3228C41.0021 37.037 40.9624 36.7415 40.9624 36.4321Z" fill="#5B5B5B"/>
<path d="M52.2247 36.8353V38.5404H53.7907C53.9021 38.5404 54.0056 38.5183 54.1031 38.4718C54.2017 38.4275 54.2869 38.3664 54.3615 38.2906C54.4354 38.2145 54.4942 38.1268 54.5366 38.0259C54.579 37.9261 54.5996 37.8193 54.5996 37.7045C54.5996 37.5976 54.579 37.4904 54.5366 37.385C54.4942 37.2815 54.4365 37.1874 54.3637 37.1056C54.2902 37.0243 54.2051 36.9583 54.1076 36.9095C54.0101 36.8585 53.9044 36.8353 53.7907 36.8353H52.2247ZM54.3071 35.0109C54.3071 34.7953 54.2355 34.6246 54.0926 34.4983C53.9494 34.3734 53.7626 34.3108 53.5324 34.3108H52.2247V35.8018H53.5245C53.6377 35.8018 53.7427 35.7823 53.8384 35.741C53.9351 35.7009 54.0176 35.6443 54.0889 35.5726C54.1586 35.5018 54.2119 35.417 54.2497 35.3218C54.2876 35.225 54.3071 35.1208 54.3071 35.0109ZM55.602 34.9884C55.602 35.225 55.5619 35.4448 55.4812 35.6518C55.401 35.8569 55.2881 36.0354 55.1426 36.1869C55.2562 36.2776 55.3609 36.3804 55.4572 36.4963C55.5532 36.6106 55.6357 36.734 55.7047 36.8679C55.7726 37.0003 55.8266 37.1398 55.8645 37.2871C55.9024 37.4341 55.9204 37.5841 55.9204 37.736C55.9204 37.9951 55.872 38.2415 55.7745 38.4763C55.677 38.711 55.5431 38.918 55.3747 39.0931C55.2052 39.2701 55.0057 39.41 54.7766 39.5158C54.5475 39.6211 54.3041 39.6733 54.0446 39.6733H51.171C51.1009 39.6733 51.0431 39.6538 50.9974 39.6136C50.9531 39.5746 50.9299 39.5169 50.9299 39.4415V33.4276C50.9299 33.3519 50.9516 33.2908 50.994 33.2458C51.0356 33.2 51.0949 33.1779 51.171 33.1779H53.7686C54.0221 33.1779 54.2606 33.224 54.4841 33.3174C54.7069 33.4115 54.9015 33.539 55.0684 33.7014C55.2337 33.8615 55.365 34.0535 55.4587 34.2736C55.5544 34.4934 55.602 34.7311 55.602 34.9884Z" fill="#5B5B5B"/>
<path d="M60.8464 37.3243H62.7011L61.7775 35.063L60.8464 37.3243ZM61.2705 33.3223C61.2908 33.2821 61.3181 33.2476 61.353 33.2195C61.3879 33.1914 61.4453 33.1779 61.5244 33.1779H62.0314C62.0959 33.1779 62.1446 33.1914 62.1795 33.2195C62.2159 33.2476 62.2433 33.2821 62.2635 33.3223L64.8656 39.4723V39.4981C64.8656 39.542 64.8514 39.5821 64.8225 39.6185C64.7929 39.6556 64.7276 39.6733 64.6256 39.6733H63.7853C63.7298 39.6733 63.6878 39.6643 63.6604 39.6451C63.633 39.6256 63.6105 39.5896 63.5929 39.5383L63.1605 38.5179H60.387L59.9539 39.5383C59.9273 39.6286 59.8736 39.6733 59.7923 39.6733H58.8821C58.8094 39.6733 58.7588 39.6598 58.7314 39.6316C58.7033 39.6035 58.6898 39.5634 58.6898 39.5113C58.6898 39.5056 58.9084 38.9878 59.3453 37.9588C59.7829 36.9286 60.4245 35.3844 61.2705 33.3223Z" fill="#5B5B5B"/>
<path d="M68.853 35.6443C68.8924 35.756 68.9486 35.8539 69.0233 35.9401C69.0975 36.0264 69.1905 36.0931 69.3011 36.1438C69.4121 36.1929 69.5378 36.218 69.6773 36.218H71.2031V34.3715H69.7076C69.5715 34.3715 69.4459 34.4 69.3338 34.4551C69.2213 34.5099 69.1256 34.5811 69.0454 34.6689C68.9651 34.7563 68.9033 34.8549 68.8598 34.9648C68.8159 35.0731 68.7934 35.183 68.7934 35.2948C68.7934 35.417 68.8133 35.5344 68.853 35.6443ZM72.4939 39.4888C72.4939 39.5544 72.4755 39.6001 72.4376 39.6298C72.3994 39.6583 72.354 39.6733 72.3015 39.6733H71.3959C71.268 39.6733 71.2031 39.6121 71.2031 39.4888V37.4026H69.8565L68.8856 39.5383C68.8534 39.6286 68.7979 39.6733 68.7188 39.6733H67.6744C67.6009 39.6733 67.5506 39.6598 67.5229 39.6316C67.4955 39.6035 67.4816 39.5634 67.4816 39.5113C67.4816 39.5049 67.4828 39.4993 67.4858 39.4918C67.4888 39.4843 67.4903 39.4786 67.4903 39.4723L68.6055 37.1323C68.4488 37.0419 68.3036 36.932 68.1724 36.8038C68.0415 36.6759 67.9298 36.533 67.8386 36.3774C67.7464 36.221 67.6748 36.053 67.6245 35.8715C67.5728 35.6919 67.5476 35.5018 67.5476 35.3041C67.5476 35.0124 67.6009 34.7375 67.7093 34.4784C67.8169 34.2211 67.9654 33.9958 68.1548 33.8038C68.3445 33.6103 68.5684 33.4591 68.8268 33.3455C69.0851 33.2345 69.3634 33.1779 69.6641 33.1779H72.3015C72.4301 33.1779 72.4939 33.2476 72.4939 33.3875V39.4888Z" fill="#5B5B5B"/>
<path d="M82.0155 35.9548C82.1411 35.9548 82.2829 35.897 82.4423 35.7815C82.6009 35.6634 82.7505 35.5014 82.89 35.2951C82.9399 35.225 82.9845 35.1594 83.0243 35.1001C83.0636 35.0405 83.0996 34.9839 83.1334 34.9318C83.1668 34.8785 83.1994 34.8294 83.2316 34.7806C83.2635 34.733 83.2958 34.6839 83.3284 34.6344C83.4709 34.4191 83.6119 34.2215 83.7518 34.0419C83.8928 33.8619 84.0458 33.7074 84.2111 33.578C84.3776 33.4483 84.5644 33.3474 84.7714 33.2758C84.9788 33.2041 85.2221 33.1689 85.5015 33.1689C85.6095 33.1689 85.6639 33.2225 85.6639 33.3309V34.1098C85.6579 34.1563 85.641 34.1975 85.6133 34.2335C85.5859 34.271 85.5476 34.2886 85.497 34.2886C85.3395 34.2886 85.1734 34.3539 84.9968 34.4863C84.8201 34.6168 84.6476 34.7919 84.4781 35.0109C84.3934 35.1208 84.312 35.2336 84.2318 35.3499C84.1511 35.4646 84.0739 35.5775 83.9993 35.6859C83.9254 35.7958 83.8538 35.897 83.7855 35.9904C83.7161 36.0845 83.6543 36.1629 83.5988 36.227L86.3678 39.5379H86.3633C86.3779 39.5555 86.3903 39.5739 86.3981 39.593C86.4071 39.6106 86.4146 39.6283 86.4203 39.6421C86.412 39.6628 86.3873 39.6729 86.3464 39.6729H85.0211C84.9889 39.6729 84.9585 39.6646 84.9311 39.6466C84.9038 39.6301 84.8768 39.6076 84.8498 39.581C84.8239 39.5555 84.7976 39.5248 84.7714 39.4921C84.7448 39.4576 84.7174 39.425 84.6889 39.3935L82.755 37.0359C82.6444 37.1113 82.5255 37.1671 82.398 37.199C82.272 37.2335 82.1438 37.2545 82.0155 37.2631V39.4813C82.0155 39.6095 81.9488 39.6729 81.8145 39.6729H80.988C80.8568 39.6729 80.7915 39.6095 80.7915 39.4813V33.3699C80.7915 33.3148 80.8073 33.2686 80.8418 33.233C80.8751 33.1959 80.922 33.1779 80.9839 33.1779H81.8145C81.8636 33.1779 81.9101 33.1959 81.9525 33.23C81.9949 33.2656 82.0155 33.3114 82.0155 33.3699V35.9548Z" fill="#5B5B5B"/>
<path d="M90.759 36.4321C90.759 36.7265 90.8092 37.0033 90.9094 37.2605C91.011 37.5189 91.1512 37.745 91.332 37.937C91.5124 38.1283 91.7272 38.2801 91.9747 38.3919C92.2234 38.5029 92.4956 38.5584 92.7934 38.5584C93.0877 38.5584 93.36 38.5029 93.609 38.3919C93.8576 38.2801 94.0736 38.1283 94.254 37.937C94.4344 37.745 94.5761 37.5189 94.6785 37.2605C94.7805 37.0033 94.8315 36.7265 94.8315 36.4321C94.8315 36.1348 94.7805 35.8569 94.6785 35.5963C94.5761 35.3364 94.4344 35.1106 94.254 34.919C94.0736 34.7259 93.8576 34.574 93.609 34.4611C93.36 34.3494 93.0877 34.2928 92.7934 34.2928C92.4956 34.2928 92.2234 34.3494 91.9747 34.4611C91.7272 34.574 91.5124 34.7259 91.332 34.919C91.1512 35.1106 91.011 35.3364 90.9094 35.5963C90.8092 35.8569 90.759 36.1348 90.759 36.4321ZM89.46 36.4321C89.46 36.1228 89.4997 35.8254 89.5781 35.5415C89.6572 35.258 89.7694 34.9899 89.9149 34.742C90.0611 34.4923 90.2347 34.2658 90.438 34.0606C90.6409 33.8574 90.8659 33.6834 91.1134 33.539C91.3609 33.3946 91.6271 33.2818 91.9117 33.2015C92.196 33.1213 92.4922 33.0811 92.8016 33.0811C93.108 33.0811 93.4035 33.1213 93.6896 33.2015C93.975 33.2818 94.242 33.3946 94.4906 33.539C94.7381 33.6834 94.9639 33.8574 95.1682 34.0606C95.3722 34.2658 95.547 34.4923 95.691 34.742C95.835 34.9899 95.9471 35.258 96.0281 35.5415C96.108 35.8254 96.1481 36.1228 96.1481 36.4321C96.1481 36.7415 96.108 37.037 96.0281 37.3228C95.9471 37.6063 95.835 37.871 95.691 38.1178C95.547 38.3649 95.3722 38.5895 95.1682 38.7916C94.9639 38.9956 94.7381 39.1689 94.4906 39.3151C94.242 39.4606 93.975 39.5724 93.6896 39.6508C93.4035 39.7299 93.108 39.77 92.8016 39.77C92.4922 39.77 92.196 39.7299 91.9117 39.6508C91.6271 39.5724 91.3609 39.4606 91.1134 39.3151C90.8659 39.1689 90.6409 38.9956 90.438 38.7916C90.2347 38.5895 90.0611 38.3649 89.9149 38.1178C89.7694 37.871 89.6572 37.6063 89.5781 37.3228C89.4997 37.037 89.46 36.7415 89.46 36.4321Z" fill="#5B5B5B"/>
<path d="M102.359 39.5338C102.318 39.5338 102.278 39.5113 102.239 39.4681C102.199 39.4235 102.169 39.3834 102.149 39.3444C101.912 38.7039 101.677 38.066 101.442 37.4341C101.207 36.8008 100.973 36.1633 100.741 35.5224L100.334 39.446C100.327 39.5158 100.304 39.5709 100.263 39.6125C100.222 39.6526 100.163 39.6733 100.084 39.6733H99.288C99.1361 39.6733 99.0604 39.5915 99.0604 39.428L99.6821 33.4051C99.6874 33.3444 99.7125 33.2904 99.7568 33.2465C99.7995 33.2 99.8569 33.1775 99.9266 33.1775H100.946C101.004 33.1775 101.053 33.1955 101.092 33.2326C101.131 33.2686 101.161 33.3163 101.182 33.374C101.302 33.7104 101.424 34.0505 101.552 34.3955C101.679 34.742 101.803 35.0806 101.925 35.4121L102.731 37.6123L104.274 33.3789V33.3826C104.294 33.3129 104.327 33.2611 104.37 33.2285C104.414 33.1944 104.466 33.1775 104.523 33.1775H105.539C105.606 33.1775 105.662 33.2 105.707 33.2465C105.752 33.2904 105.777 33.3444 105.784 33.4051L106.405 39.4415C106.405 39.5169 106.384 39.5754 106.343 39.6136C106.302 39.6538 106.247 39.6733 106.178 39.6733H105.381C105.305 39.6733 105.247 39.6526 105.206 39.6125C105.165 39.5709 105.142 39.5158 105.136 39.446L104.725 35.5224L103.325 39.3193C103.302 39.3624 103.268 39.41 103.225 39.4591C103.181 39.5083 103.139 39.5338 103.098 39.5338H102.359Z" fill="#5B5B5B"/>
<path d="M114.592 33.1779C114.639 33.1779 114.679 33.1925 114.712 33.224C114.746 33.2533 114.763 33.2968 114.763 33.353V39.4888C114.763 39.5458 114.745 39.5896 114.711 39.6223C114.676 39.6568 114.629 39.6733 114.57 39.6733H113.717C113.663 39.6733 113.616 39.6556 113.58 39.6211C113.543 39.5859 113.525 39.5409 113.525 39.4843V34.3333H110.931V39.4888C110.931 39.5458 110.912 39.5896 110.874 39.6223C110.837 39.6568 110.79 39.6733 110.734 39.6733H109.877C109.825 39.6733 109.781 39.6568 109.744 39.6256C109.708 39.593 109.689 39.5495 109.689 39.4936V33.3575C109.689 33.2375 109.745 33.1779 109.856 33.1779H114.592Z" fill="#5B5B5B"/>
<path d="M120.051 37.3243H121.906L120.983 35.063L120.051 37.3243ZM120.476 33.3223C120.496 33.2821 120.524 33.2476 120.558 33.2195C120.593 33.1914 120.651 33.1779 120.729 33.1779H121.236C121.301 33.1779 121.35 33.1914 121.385 33.2195C121.421 33.2476 121.448 33.2821 121.468 33.3223L124.071 39.4723V39.4981C124.071 39.542 124.056 39.5821 124.027 39.6185C123.998 39.6556 123.932 39.6733 123.831 39.6733H122.99C122.935 39.6733 122.893 39.6643 122.865 39.6451C122.838 39.6256 122.816 39.5896 122.798 39.5383L122.366 38.5179H119.592L119.158 39.5383C119.133 39.6286 119.078 39.6733 118.997 39.6733H118.087C118.014 39.6733 117.964 39.6598 117.937 39.6316C117.909 39.6035 117.895 39.5634 117.895 39.5113C117.895 39.5056 118.114 38.9878 118.551 37.9588C118.988 36.9286 119.63 35.3844 120.476 33.3223Z" fill="#5B5B5B"/>
<path d="M127.124 33.3695C127.124 33.3268 127.142 33.2833 127.177 33.242C127.212 33.1985 127.256 33.1779 127.308 33.1779H128.213C128.257 33.1779 128.302 33.1974 128.347 33.2345C128.392 33.2728 128.415 33.3174 128.415 33.3695V35.6311H131.31V33.3695C131.31 33.3174 131.329 33.2728 131.368 33.2345C131.406 33.1974 131.454 33.1779 131.511 33.1779H132.378C132.43 33.1779 132.48 33.1955 132.529 33.23C132.577 33.2653 132.6 33.3118 132.6 33.3695V39.4816C132.6 39.6091 132.526 39.6733 132.378 39.6733H131.511C131.459 39.6733 131.413 39.6568 131.372 39.6256C131.331 39.5926 131.31 39.545 131.31 39.4816V36.8259H128.415V39.4816C128.415 39.5394 128.394 39.5859 128.352 39.6211C128.309 39.6556 128.256 39.6733 128.192 39.6733H127.308C127.186 39.6733 127.124 39.6091 127.124 39.4816V33.3695Z" fill="#5B5B5B"/>
<path d="M141.847 39.4816C141.847 39.6091 141.783 39.6733 141.655 39.6733H140.772C140.634 39.6733 140.571 39.6091 140.579 39.4816V35.1549L137.538 39.5289C137.504 39.569 137.473 39.6035 137.445 39.6316C137.418 39.6601 137.387 39.6733 137.355 39.6733H136.424C136.281 39.6733 136.21 39.6091 136.21 39.4816V33.3695C136.21 33.3118 136.234 33.2653 136.284 33.2296C136.333 33.1955 136.38 33.1775 136.424 33.1775H137.308C137.34 33.1775 137.375 33.1869 137.412 33.2064C137.45 33.2251 137.479 33.2611 137.499 33.3129V37.3689L140.373 33.3129C140.396 33.2698 140.433 33.2356 140.484 33.2131C140.536 33.1895 140.584 33.1775 140.626 33.1775H141.655C141.718 33.1775 141.767 33.197 141.798 33.2345C141.831 33.2728 141.847 33.3174 141.847 33.3695V39.4816Z" fill="#5B5B5B"/>
<path d="M146.359 35.6443C146.399 35.756 146.455 35.8539 146.529 35.9401C146.604 36.0264 146.697 36.0931 146.808 36.1438C146.918 36.1929 147.044 36.218 147.183 36.218H148.71V34.3715H147.214C147.078 34.3715 146.953 34.4 146.84 34.4551C146.728 34.5099 146.632 34.5811 146.552 34.6689C146.472 34.7563 146.41 34.8549 146.366 34.9648C146.322 35.0731 146.3 35.183 146.3 35.2948C146.3 35.417 146.32 35.5344 146.359 35.6443ZM150 39.4888C150 39.5544 149.982 39.6001 149.944 39.6298C149.905 39.6583 149.86 39.6733 149.808 39.6733H148.902C148.774 39.6733 148.71 39.6121 148.71 39.4888V37.4026H147.363L146.392 39.5383C146.36 39.6286 146.304 39.6733 146.225 39.6733H145.18C145.108 39.6733 145.057 39.6598 145.029 39.6316C145.002 39.6035 144.988 39.5634 144.988 39.5113C144.988 39.5049 144.989 39.4993 144.992 39.4918C144.995 39.4843 144.996 39.4786 144.996 39.4723L146.112 37.1323C145.955 37.0419 145.81 36.932 145.679 36.8038C145.548 36.6759 145.436 36.533 145.345 36.3774C145.252 36.221 145.181 36.053 145.131 35.8715C145.079 35.6919 145.054 35.5018 145.054 35.3041C145.054 35.0124 145.108 34.7375 145.215 34.4784C145.323 34.2211 145.472 33.9958 145.661 33.8038C145.851 33.6103 146.074 33.4591 146.334 33.3455C146.591 33.2345 146.87 33.1779 147.17 33.1779H149.808C149.937 33.1779 150 33.2476 150 33.3875V39.4888Z" fill="#5B5B5B"/>
<path fill-rule="evenodd" clip-rule="evenodd" d="M122.622 18.3313H99.8509C101.781 22.7053 106.148 25.7615 111.237 25.7615C116.324 25.7615 120.692 22.7053 122.622 18.3313Z" fill="url(#paint0_radial_1_29)"/>
<path fill-rule="evenodd" clip-rule="evenodd" d="M98.9655 12.4681H104.539C104.539 8.78789 107.523 5.80401 111.203 5.80401C114.883 5.80401 117.867 8.78789 117.867 12.4681H123.441C123.441 5.70951 117.962 0.230011 111.203 0.230011C104.444 0.230011 98.9655 5.70951 98.9655 12.4681Z" fill="url(#paint1_linear_1_29)"/>
<path d="M-1.90735e-06 1.88565H15.5854V7.4604H5.93475V25.1102H-1.90735e-06V1.88565Z" fill="#5B5B5B"/>
<path d="M29.16 6.27277C32.5657 6.27277 34.527 8.49164 34.4756 11.3304H23.07C23.6887 8.28614 25.5986 6.27277 29.16 6.27277ZM35.5575 19.4195C34.1955 20.1545 32.3482 20.7234 30.243 20.7234C26.5792 20.7234 23.7926 18.8135 23.2759 15.3046H40.0496C40.3072 14.4271 40.4104 13.5493 40.4104 12.1044C40.4104 5.60189 35.4045 1.31827 29.4176 1.31827C21.7796 1.31827 17.1349 6.73702 17.1349 13.4979C17.1349 20.8265 22.1411 25.6775 29.6242 25.6775C31.6676 25.6775 33.7301 25.3096 35.5575 24.5503V19.4195Z" fill="#5B5B5B"/>
<path d="M46.9939 1.88565L46.632 9.11153C46.1561 17.3994 43.7899 19.6633 41.8455 19.8002V25.1409L41.8841 25.5748C48.1294 25.5748 51.2257 22.9423 52.3612 10.2984L52.5157 7.82115H58.6575V25.1102H64.5922V1.88565H46.9939Z" fill="#5B5B5B"/>
<path d="M71.1982 25.1102V1.88565H77.133V16.5947L87.9713 1.88565H93.906V25.1102H87.9713V10.4015L77.133 25.1102H71.1982Z" fill="#5B5B5B"/>
<path d="M149.476 21.6526C147.515 24.2844 144.006 25.6775 140.238 25.6775C132.703 25.6775 127.646 20.8265 127.646 13.4982C127.646 6.737 132.6 1.31787 139.671 1.31787C143.489 1.31787 146.844 2.2985 149.012 4.46675L146.225 9.1625C144.47 7.46 142.56 6.89187 140.444 6.89187C137.142 6.89187 133.993 9.42087 133.993 13.4982C133.993 17.627 137.193 20.1556 140.703 20.1556C143.232 20.1556 145.192 18.9687 146.689 17.3176L149.476 21.6526Z" fill="#5B5B5B"/>
</g>
<defs>
<radialGradient id="paint0_radial_1_29" cx="0" cy="0" r="1" gradientUnits="userSpaceOnUse" gradientTransform="translate(111.464 13.8735) rotate(91.5074) scale(18.5865 18.5858)">
<stop stop-color="#FFDE38"/>
<stop offset="0.168627" stop-color="#FFDE38"/>
<stop offset="1" stop-color="#95C12B"/>
</radialGradient>
<linearGradient id="paint1_linear_1_29" x1="110.429" y1="21.7014" x2="112.122" y2="0.954511" gradientUnits="userSpaceOnUse">
<stop stop-color="#FFDE3C"/>
<stop offset="0.388235" stop-color="#FFDE3C"/>
<stop offset="1" stop-color="#EA5E20"/>
</linearGradient>
<clipPath id="clip0_1_29">
<rect width="150" height="40" fill="white"/>
</clipPath>
</defs>
</svg>
